<?xml version="1.0" encoding="utf-8"?>
<!-- Generator: Adobe Illustrator 24.2.1, SVG Export Plug-In . SVG Version: 6.00 Build 0)  -->
<svg version="1.1" id="Layer_1" xmlns="http://www.w3.org/2000/svg" xmlns:xlink="http://www.w3.org/1999/xlink" x="0px" y="0px"
	 viewBox="0 0 720 1280" style="enable-background:new 0 0 720 1280;" xml:space="preserve">
<style type="text/css">
	.st0{fill:url(#SVGID_1_);}
	.st1{fill:#5A60B7;}
	.st2{fill:#77CFFF;}
	.st3{fill:#FF74AD;}
	.st4{fill:#868ACB;}
	.st5{fill:none;stroke:#77CFFF;stroke-width:90;stroke-miterlimit:10;}
	.st6{fill:none;stroke:#FF74AD;stroke-width:90;stroke-miterlimit:10;}
	.st7{fill:#FFFFFF;}
	.st8{opacity:0.54;fill:#FFFFFF;enable-background:new    ;}
	.st9{opacity:0.49;fill:#FFFFFF;enable-background:new    ;}
	.st10{opacity:0.67;fill:#FFFFFF;enable-background:new    ;}
	.st11{opacity:0.28;fill:#FFFFFF;enable-background:new    ;}
</style>
<g>
	<circle class="st5" cx="51.7" cy="65.4" r="176"/>
	<circle class="st6" cx="672.4" cy="1242.6" r="176"/>
	<g>
		<g id="logo-logo" transform="matrix(1.9692780337941629 0 0 1.9692780337941629 640.0153846153846 390.91211488544747)">
			<g>
				<g transform="matrix(0.44807776786958026 0 0 -0.4480777678695803 -4.4448418417125595 18.475590602566427)">
					<path class="st7" d="M-181-48.7c0.9-0.8,1.7-1.7,2.6-2.4l0,0l51,13.1c-0.6,0.9-1.3,1.7-2,2.6l0,0L-181-48.7z M-175.9-53.7
						c0.8-0.9,1.6-1.7,2.4-2.5l0,0l49.8,12.7c-0.6,0.9-1.2,1.8-1.8,2.7l0,0L-175.9-53.7z M-123.8-43.5c0.3-0.5,0.7-0.9,1-1.5l0,0
						C-123.1-44.5-123.4-43.9-123.8-43.5L-123.8-43.5L-123.8-43.5z M-171.3-58.8c0.7-0.9,1.4-1.7,2.1-2.6l0,0l48.9,12.5
						c-0.6,0.9-1.1,1.8-1.7,2.7l0,0L-171.3-58.8z M-181-48.7L-181-48.7c-0.4,0.3-0.7,0.7-1.1,1l0,0C-181.7-48-181.4-48.4-181-48.7
						 M-118.7-51.6L-167.1-64c0.6-0.9,1.3-1.7,2-2.6l0,0l48.1,12.4C-117.6-53.4-118.1-52.4-118.7-51.6L-118.7-51.6L-118.7-51.6
						c-0.6,0.9-1.1,1.8-1.7,2.7l0,0C-119.7-49.8-119.2-50.7-118.7-51.6 M-178.2-51.4c-0.1,0.1-0.2,0.2-0.3,0.3l0,0
						C-178.4-51.3-178.3-51.3-178.2-51.4 M-175.9-53.7L-175.9-53.7L-175.9-53.7L-175.9-53.7L-175.9-53.7z M-163.3-69.3
						c0.6-0.9,1.2-1.8,1.8-2.7l0,0l47.5,12.2c-0.5,0.9-0.9,1.9-1.4,2.7l0,0L-163.3-69.3z M-171.3-58.8L-171.3-58.8L-171.3-58.8
						L-171.3-58.8L-171.3-58.8 M-114-59.8c0.3-0.5,0.6-1,0.8-1.5l0,0C-113.6-60.8-113.8-60.3-114-59.8L-114-59.8L-114-59.8z
						 M-113.1-61.7c-0.1,0.2-0.2,0.3-0.3,0.4l0,0C-113.2-61.4-113.2-61.6-113.1-61.7 M-169.2-61.4L-169.2-61.4L-169.2-61.4
						L-169.2-61.4L-169.2-61.4L-169.2-61.4z M-112.9-62.1c-0.1,0.2-0.2,0.3-0.3,0.4l0,0C-113-61.9-112.9-62-112.9-62.1 M-112.6-62.6
						L-112.6-62.6c-0.1,0.2-0.2,0.3-0.3,0.4l0,0C-112.7-62.3-112.7-62.5-112.6-62.6 M-159.9-74.6c0.6-0.9,1.1-1.8,1.6-2.7l0,0
						l46.9,12.1c-0.5,0.9-0.9,1.9-1.3,2.7l0,0L-159.9-74.6z M-111.3-65.4c0.2-0.4,0.4-0.8,0.6-1.2l0,0
						C-110.9-66.1-111-65.7-111.3-65.4L-111.3-65.4L-111.3-65.4z M-156.7-80.2L-156.7-80.2L-156.7-80.2c0.5-0.9,0.9-1.8,1.4-2.7l0,0
						l46.5,12c-0.2,0.4-0.3,0.7-0.5,1.1l0,0c-0.3,0.6-0.6,1.2-0.8,1.7l0,0L-156.7-80.2z M-163.3-69.3L-163.3-69.3L-163.3-69.3
						L-163.3-69.3 M-163.3-69.3L-163.3-69.3L-163.3-69.3L-163.3-69.3L-163.3-69.3 M-108.7-71c0.4-0.9,0.8-1.9,1.2-2.8l0,0
						C-107.9-72.8-108.3-71.9-108.7-71L-108.7-71L-108.7-71z M-153.9-85.7c0.5-0.9,0.9-1.9,1.3-2.8l0,0l46.2,11.9
						c-0.4,0.9-0.8,1.9-1.2,2.8l0,0L-153.9-85.7z M-151.3-91.3c0.4-0.9,0.8-1.9,1.2-2.8l0,0l46,11.8c-0.3,0.9-0.7,1.9-1,2.9l0,0
						L-151.3-91.3z M-270-84.1l-146.5-37.6c-0.3-1.1-0.6-2.2-0.8-3.3l0,0l158.8,40.6c-1.2,0.1-2.6,0.2-3.9,0.2l0,0h-7.6L-270-84.1
						L-270-84.1z M-294.5-84.1l-119.6-30.7c0.3,0.6,0.6,1.2,0.9,1.8l0,0c-0.4-0.8-0.7-1.6-1.1-2.4l0,0c-0.4-0.9-0.8-2-1.1-3l0,0
						l133.2,34.2h-12.3V-84.1z M-318.9-84.1l-91.4-23.4c-0.7-1.2-1.4-2.4-2.1-3.7l0,0l105.7,27.1H-318.9L-318.9-84.1z M-256.5-84.5
						c-0.6,0.1-1.2,0.2-1.9,0.2l0,0C-257.8-84.3-257.2-84.4-256.5-84.5 M-255.6-84.6c-0.4,0.1-0.7,0.1-1.1,0.2l0,0
						C-256.2-84.6-255.9-84.6-255.6-84.6 M-254.7-84.8c-0.3,0.1-0.6,0.1-0.8,0.1l0,0C-255.3-84.7-255-84.7-254.7-84.8 M-253.9-84.9
						c-0.3,0.1-0.6,0.1-0.8,0.2l0,0C-254.4-84.8-254.1-84.9-253.9-84.9 M-253.2-85.1c-0.3,0.1-0.5,0.1-0.7,0.2l0,0
						C-253.6-84.9-253.4-84.9-253.2-85.1 M-252.9-85.1c-0.1,0-0.3,0.1-0.3,0.1l0,0C-253.1-85.1-252.9-85.1-252.9-85.1 M-251.1-85.5
						l-166.8-42.8c-0.2-1-0.3-2.1-0.3-3.2l0,0l172.7,44.3c-2.4,0.9-4.8,1.7-7.3,2.1l0,0C-252.2-85.2-251.6-85.4-251.1-85.5
						 M-149.2-97c0.3-0.9,0.6-1.9,0.9-2.9l0,0l45.8,11.8c-0.3,0.9-0.6,2-0.9,2.9l0,0L-149.2-97z M-245.6-87.2c0.1,0,0.2-0.1,0.3-0.1
						l0,0C-245.4-87.3-245.5-87.2-245.6-87.2L-245.6-87.2L-245.6-87.2z M-243.2-88.2c-0.7,0.3-1.3,0.6-2.1,0.9l0,0
						C-244.7-87.6-244-87.9-243.2-88.2 M-101.5-91.1L-101.5-91.1c-0.3,0.9-0.6,2-0.9,2.9l0,0C-102.1-89.1-101.8-90.1-101.5-91.1
						 M-418.4-134.7c0,1.1,0.1,2.1,0.2,3.2l0,0c-0.1-1.4-0.2-2.9-0.2-4.4l0,0v-1.9l181.2,46.5c-1.2,0.8-2.5,1.5-3.8,2.1l0,0
						L-418.4-134.7z M-147.2-102.8c0.3-1,0.6-2,0.8-3l0,0l0,0l45.7,11.8c-0.3,0.9-0.6,2-0.8,2.9l0,0L-147.2-102.8z M-237.2-91.4
						c0.6-0.3,1.1-0.7,1.7-1l0,0C-236.1-92-236.7-91.7-237.2-91.4L-237.2-91.4L-237.2-91.4z M-418.5-141v-3.2l187.7,48.1
						c-1,0.8-2.1,1.6-3.1,2.4l0,0L-418.5-141z M-100.7-94c0.3-0.9,0.6-2,0.8-2.9l0,0C-100.2-96-100.5-94.9-100.7-94L-100.7-94
						L-100.7-94z M-145.7-108.7c0.3-1,0.5-2,0.6-3l0,0l0,0l0,0l45.8,11.8c-0.3,1-0.5,2-0.7,3l0,0L-145.7-108.7z M-149.2-97
						L-149.2-97L-149.2-97L-149.2-97 M-356.4-131.4h12.2l118.7,30.5c-0.6,0.6-1,1.1-1.6,1.7l0,0c-0.3,0.3-0.6,0.6-0.9,0.9l0,0
						L-356.4-131.4z M-99.1-100.5c-0.1,0.3-0.1,0.4-0.2,0.6l0,0C-99.2-100.2-99.1-100.4-99.1-100.5 M-98.8-102.3
						c-0.1,0.6-0.3,1.1-0.3,1.7l0,0C-99-101.1-98.9-101.7-98.8-102.3 M-98.7-102.9l-45.8-11.8c0.2-1,0.3-2,0.5-3l0,0l0,0l45.9,11.8
						c-0.3,1.2-0.5,2.4-0.7,3.6l0,0C-98.8-102.5-98.7-102.7-98.7-102.9 M-332-131.4h12.2l98.4,25.2c-0.6,0.9-1.2,1.8-2,2.6l0,0
						L-332-131.4z M-410.1-107.3c0.4,0.6,0.9,1.2,1.2,1.9l0,0C-409.3-106-409.7-106.6-410.1-107.3 M-221.4-106.1
						c0.3-0.3,0.5-0.6,0.7-1l0,0C-220.9-106.8-221.1-106.4-221.4-106.1L-221.4-106.1L-221.4-106.1z M-220.6-107.3
						c0,0.1-0.1,0.1-0.1,0.2l0,0C-220.6-107.2-220.6-107.3-220.6-107.3 M-410.3-107.6L-410.3-107.6c0.1,0.1,0.2,0.3,0.3,0.3l0,0
						C-410.2-107.3-410.2-107.5-410.3-107.6 M-219.6-108.8L-219.6-108.8L-219.6-108.8L-219.6-108.8 M-307.5-131.4h12.2l77.3,19.8
						c-0.5,0.9-1,1.8-1.6,2.7l0,0L-307.5-131.4z M-143.6-120.7c0.2-1,0.3-2.1,0.3-3.1l0,0l46.2,11.8c0.2-1,0.3-2.1,0.4-3.1l0,0
						c-0.3,2.1-0.6,4-0.9,6.1l0,0L-143.6-120.7z M-413.3-113c0.3,0.6,0.6,1.2,0.9,1.7l0,0C-412.7-111.8-413-112.4-413.3-113
						 M-145.1-111.7L-145.1-111.7L-145.1-111.7L-145.1-111.7 M-283.1-131.4h12.2l55.5,14.2c-0.3,0.6-0.5,1.2-0.7,1.7l0,0
						c-0.2,0.4-0.3,0.7-0.5,1l0,0L-283.1-131.4z M-143-126.8c0.1-1,0.2-2.1,0.2-3.1l0,0l0,0l46.5,11.9c-0.1,1-0.3,2.1-0.3,3.1l0,0
						L-143-126.8z M-96.4-117.9c0-0.1,0-0.2,0-0.3l0,0C-96.3-118.1-96.4-118.1-96.4-117.9L-96.4-117.9L-96.4-117.9z M-96.2-119.3
						c0,0.4-0.1,0.8-0.1,1.1l0,0C-96.3-118.6-96.2-119-96.2-119.3 M-96.2-120.5c0,0.4-0.1,0.8-0.1,1.1l0,0
						C-96.2-119.7-96.2-120.1-96.2-120.5 M-214.3-120l-46.9-12.1c0.3-0.2,0.5-0.4,0.7-0.6l0,0c0.6-0.6,0.9-1.1,1.3-2l0,0l0,0l0,0
						v-0.1l45.7,11.8C-213.7-122-214-121-214.3-120L-214.3-120L-214.3-120L-214.3-120L-214.3-120 M-96.1-121.1L-96.1-121.1
						c0,0.2,0,0.4-0.1,0.6l0,0L-96.1-121.1z M-142.8-133c0-0.6,0-1,0-1.6l0,0l46.8,11.9c-0.1,0.6-0.1,1.1-0.2,1.7l0,0L-142.8-133z
						 M-213.5-122.9c0.2-0.6,0.3-1.1,0.4-1.7l0,0C-213.2-124-213.3-123.5-213.5-122.9L-213.5-122.9L-213.5-122.9z M-212.9-125.6
						c-0.1,0.3-0.2,0.7-0.3,1l0,0C-213-124.9-212.9-125.3-212.9-125.6 M-487.5-127.3L-487.5-127.3c0.1,0.7,0.1,1.4,0.2,2.1l0,0
						C-487.3-125.9-487.4-126.6-487.5-127.3 M-212.9-125.9l-46.5-11.9v-3.2l46.9,12.1C-212.5-127.9-212.6-127-212.9-125.9
						L-212.9-125.9L-212.9-125.9c0,0.1,0,0.2-0.1,0.3l0,0C-212.9-125.7-212.9-125.8-212.9-125.9 M-143-126.8L-143-126.8L-143-126.8z
						 M-535-139.5v-3.2l47.4,12.1c0.1,1.1,0.1,2.1,0.2,3.2l0,0L-535-139.5z M-212.4-128.9c0.1-0.4,0.1-0.7,0.2-1.1l0,0
						C-212.3-129.7-212.3-129.3-212.4-128.9L-212.4-128.9L-212.4-128.9z M-212.3-130.3c0,0.1,0,0.2,0,0.3l0,0
						C-212.3-130.1-212.3-130.2-212.3-130.3 M-212.1-132l-47.2-12.1v-3.2l49.2,12.6h-1.9C-212-133.7-212.1-132.9-212.1-132
						L-212.1-132L-212.1-132L-212.1-132L-212.1-132L-212.1-132 M-261.3-132L-261.3-132L-261.3-132L-261.3-132 M-261.3-132
						L-261.3-132L-261.3-132L-261.3-132L-261.3-132 M-370.7-133.3c0.2,0.3,0.3,0.6,0.5,0.8l0,0
						C-370.4-132.7-370.5-132.9-370.7-133.3 M-535-145.9v-3.2l47.2,12.1v0.8c0,0.8,0,1.6,0,2.4l0,0L-535-145.9z M-149-134.7
						l-110.2-28.2v-1.3l116.4,29.5H-149z M-173.5-134.7l-85.8-22v-3.2l98.1,25.1H-173.5z M-197.9-134.7l-61.3-15.7v-3.2l73.6,18.9
						H-197.9z M-418.5-147.3v-3.2l47.2,12.1v2.4c0,0.3,0,0.6,0,0.8l0,0L-418.5-147.3z M-535-152.1v-3.2l47.2,12.1v3.2L-535-152.1z
						 M-418.5-153.6v-3.2l47.2,12.1v3.2L-418.5-153.6z M-535-158.4v-3.2l47.2,12.1v3.2L-535-158.4z M-418.5-159.9v-3.2l47.2,12.1
						v3.2L-418.5-159.9z M-535-164.7v-3.2l47.2,12.1v3.2L-535-164.7z M-418.5-166.1v-3.2l47.2,12.1v3.2L-418.5-166.1z M-535-170.9
						v-3.2l47.2,12.1v3.2L-535-170.9z M-418.5-172.4v-3.2l47.2,12.1v3.2L-418.5-172.4z M-535-177.2v-3.2l47.2,12.1v3.2L-535-177.2z
						 M-418.5-178.7v-3.2l47.2,12.1v3.2L-418.5-178.7z M-535-183.4v-3.2l47.2,12.1v3.2L-535-183.4z M-418.5-184.9v-3.1l47.2,12.1
						v3.2L-418.5-184.9z M-535-189.7v-3.2l47.2,12.1v3.2L-535-189.7z M-418.5-191.2v-3.2l47.2,12.1v3.2L-418.5-191.2z M-535-196
						v-3.2l47.2,12.1v3.2L-535-196z M-418.5-197.5v-3.2l47.2,12.1v3.2L-418.5-197.5z M-535-202.2v-3.2l47.2,12.1v3.2L-535-202.2z
						 M-418.5-203.7v-0.9l47.2,12v1L-418.5-203.7z M-259.2-238.2v-2.8c0-0.1,0-0.2,0-0.3l0,0c0,0,0-0.1-0.1-0.1l0,0l163.8,42.1v3.2
						L-259.2-238.2z M-535-208.5v-3.2l47.2,12.1v3.2L-535-208.5z M-399.2-280.3c1.1-0.8,2.2-1.6,3.3-2.3l0,0l0,0
						c0.6-0.4,1.2-0.7,1.7-1l0,0c-0.6,0.3-1.2,0.7-1.7,1l0,0l300.4,77v3.2L-399.2-280.3z M-535-214.8v-3.2l47.2,12.1v3.2L-535-214.8
						z M-392.1-284.7c1.4-0.7,2.9-1.4,4.4-2l0,0l175.6,45.1c0-1.1-0.1-2.1-0.2-3.2l0,0l-170.1-43.7c2.2-0.6,4.5-1.1,6.8-1.4l0,0
						l163,41.8c0.3,2.3,0.6,4.7,0.6,7.1l0,0h3l113.5,29.1v3.2L-392.1-284.7z M-535-221v-3.2l47.2,12.1v3.2L-535-221z M-196.8-241
						h12.2l89,22.8v3.2L-196.8-241z M-535-227.3v-3.2l47.2,12.1v3.2L-535-227.3z M-172.4-241h12.3l64.6,16.5v3.2L-172.4-241z
						 M-535-233.7v-0.6l47.2,12v0.7L-535-233.7z M-147.9-241h5.1c0-0.6,0-1.2,0-1.8l0,0l47.2,12.1v3.2L-147.9-241z M-142.8-245.9
						c-0.1-1-0.1-2.1-0.2-3.2l0,0l47.5,12.1v3.2L-142.8-245.9z M-143.3-252.3c-0.1-1.1-0.3-2.1-0.3-3.2l0,0l48.1,12.3
						c0,0.8,0,1.5,0,2.3l0,0v0.9L-143.3-252.3z M-142.8-242.8L-142.8-242.8L-142.8-242.8z M-95.5-244c0,0.3,0,0.6,0,0.8l0,0
						C-95.5-243.5-95.5-243.7-95.5-244 M-279.3-243.4l-125.4-32.1c0.4-0.4,0.8-0.8,1.2-1.2l0,0c0.5-0.5,0.9-0.9,1.4-1.3l0,0
						l135,34.7C-267.1-243.4-279.3-243.4-279.3-243.4z M-291.8-243.4l-115.6-29.4c0.8-0.9,1.7-1.8,2.5-2.7l0,0
						c-0.8,0.8-1.6,1.6-2.3,2.4l0,0l115.5,29.6H-291.8z M-95.6-246.4l-48.5-12.4c-0.2-1.1-0.4-2.2-0.6-3.3l0,0l0,0l0,0l48.9,12.5
						c0.1,1.8,0.2,3.7,0.2,5.5l0,0C-95.5-244.8-95.6-245.6-95.6-246.4 M-212.6-248.1c-0.1-0.4-0.1-0.8-0.2-1.2l0,0
						C-212.6-248.9-212.6-248.5-212.6-248.1L-212.6-248.1L-212.6-248.1z M-143-249.2L-143-249.2L-143-249.2L-143-249.2L-143-249.2z
						 M-212.7-249.5v0.1l0,0C-212.7-249.4-212.7-249.4-212.7-249.5 M-365.7-290.6h12.2l139.5,35.8c0.3,1.1,0.6,2.2,0.9,3.4l0,0
						L-365.7-290.6z M-145.3-265.4c-0.3-1.1-0.5-2.2-0.8-3.3l0,0l49.9,12.7c-0.1-1-0.2-2.1-0.3-3l0,0c0.3,2.1,0.4,4.2,0.6,6.2l0,0
						L-145.3-265.4z M-214-254.8c-0.2-0.4-0.3-0.8-0.4-1.2l0,0C-214.2-255.6-214.1-255.2-214-254.8L-214-254.8L-214-254.8z
						 M-143.6-255.5L-143.6-255.5L-143.6-255.5z M-214.5-256.4c0.1,0.2,0.1,0.3,0.2,0.4l0,0C-214.4-256.1-214.4-256.3-214.5-256.4
						 M-341.3-290.6h12.2l112.4,28.8c0.3,0.4,0.4,0.9,0.6,1.2l0,0c0.3,0.7,0.6,1.5,0.9,2.3l0,0L-341.3-290.6z M-96.5-259.2
						L-96.5-259.2c0,0.1,0,0.2,0,0.3l0,0C-96.5-259-96.5-259.1-96.5-259.2 M-146.9-272.1c-0.3-1.1-0.6-2.3-1-3.4l0,0l51.1,13.1
						c-0.1-0.5-0.2-0.9-0.2-1.4l0,0c0.1,0.5,0.2,0.9,0.3,1.4l0,0l0,0c0.2,1.1,0.3,2.1,0.4,3.2l0,0L-146.9-272.1z M-144.7-262.1
						L-144.7-262.1L-144.7-262.1L-144.7-262.1 M-218.7-265.4L-218.7-265.4c0.4,0.6,0.7,1.2,1,1.7l0,0
						C-218-264.3-218.4-264.9-218.7-265.4 M-97.1-264.2c0,0.2,0,0.3,0.1,0.4l0,0C-97.1-264-97.1-264-97.1-264.2 M-97.2-264.6
						c0,0.2,0,0.3,0.1,0.4l0,0C-97.2-264.4-97.2-264.5-97.2-264.6 M-97.3-265.6L-97.3-265.6c0.1,0.3,0.1,0.7,0.2,1l0,0
						C-97.3-265-97.3-265.3-97.3-265.6 M-316.8-290.6h12.2l83.5,21.4c0.9,1.2,1.7,2.4,2.4,3.8l0,0L-316.8-290.6z M-149.2-278.9
						c-0.4-1.2-0.9-2.3-1.3-3.5l0,0l52.6,13.5c0-0.1,0-0.2-0.1-0.3l0,0c0,0.1,0,0.2,0.1,0.3l0,0l0,0c0.2,1.1,0.4,2.2,0.6,3.3l0,0
						L-149.2-278.9z M-146.1-268.8L-146.1-268.8L-146.1-268.8L-146.1-268.8L-146.1-268.8L-146.1-268.8z M-98.5-272.2
						c0.2,1,0.4,2,0.6,3l0,0C-98.1-270.2-98.3-271.1-98.5-272.2 M-146.9-272.1L-146.9-272.1L-146.9-272.1z M-98.5-272.3L-98.5-272.3
						v0.1C-98.5-272.2-98.5-272.2-98.5-272.3 M-151.8-285.9L-151.8-285.9L-151.8-285.9c-0.2-0.4-0.3-0.7-0.5-1.1l0,0
						c-0.4-0.8-0.7-1.7-1.1-2.4l0,0l0,0l0,0l54.3,13.9c0.3,1.1,0.5,2.2,0.7,3.3l0,0L-151.8-285.9z M-292.4-290.6h12.2l52.1,13.4
						c-0.4-0.4-0.9-0.8-1.3-1.2l0,0c0.9,0.7,1.7,1.5,2.4,2.3l0,0c1,1,1.9,2.1,2.8,3.1l0,0L-292.4-290.6z M-404.8-275.5l-0.1,0.1l0,0
						C-404.8-275.5-404.8-275.5-404.8-275.5 M-233.8-281.8c1.5,1,3,2.1,4.4,3.3l0,0C-230.8-279.7-232.3-280.8-233.8-281.8
						 M-155.2-293L-155.2-293L-155.2-293c-0.6-1.2-1.2-2.4-1.9-3.6l0,0l56.4,14.5c0.3,1.1,0.6,2.2,0.9,3.4l0,0L-155.2-293z
						 M-399.2-280.3L-399.2-280.3c-0.5,0.3-0.9,0.7-1.3,1l0,0C-400-279.6-399.7-280-399.2-280.3 M-267.9-290.6h5.5
						c6.7,0,13.2,1.2,19.5,3.8l0,0c3.3,1.3,6.4,3,9.1,4.9l0,0L-267.9-290.6z M-101.7-285.5l-57.5-14.7c-0.8-1.2-1.5-2.5-2.3-3.7l0,0
						l0,0l0,0l58.8,15.1c-0.4-1.2-0.7-2.3-1.1-3.4l0,0l-60.2-15.6c-0.9-1.3-1.8-2.6-2.7-3.8l0,0l61.8,15.9c1.7,4.5,3.1,9.1,4.2,13.6
						l0,0C-101-283.3-101.4-284.4-101.7-285.5 M-392.2-284.7c-0.6,0.3-1.2,0.6-1.8,0.9l0,0C-393.4-284.1-392.8-284.4-392.2-284.7
						 M-392.1-284.7L-392.1-284.7c0,0-0.1,0-0.1,0.1l0,0C-392.2-284.7-392.1-284.7-392.1-284.7 M-151.8-285.9L-151.8-285.9
						L-151.8-285.9C-151.8-285.9-151.8-285.9-151.8-285.9 M-383.5-288.2c-0.5,0.2-1,0.3-1.5,0.5l0,0
						C-384.5-287.9-384-288.1-383.5-288.2 M-382.6-288.5c-0.3,0.1-0.6,0.2-0.9,0.3l0,0C-383.2-288.3-382.9-288.4-382.6-288.5
						 M-382.3-288.5L-382.3-288.5c-0.1,0-0.2,0.1-0.3,0.1l0,0C-382.6-288.5-382.5-288.5-382.3-288.5 M-523.2-302.1
						c0.3-0.6,0.5-1.2,0.7-1.7l0,0c-0.2,0.4-0.3,0.8-0.5,1.2l0,0l46.4,11.9l0,0c-0.1,0.2-0.2,0.3-0.3,0.5l0,0L-523.2-302.1z
						 M-521.7-305.5C-521.8-305.5-521.8-305.5-521.7-305.5L-521.7-305.5c0.5-1.1,1-2.3,1.6-3.5l0,0c-0.1,0.3-0.3,0.5-0.3,0.6l0,0
						l46.7,12c-0.5,0.9-0.9,1.8-1.4,2.7l0,0L-521.7-305.5z M-106.2-299c0.4,1.1,0.8,2.1,1.2,3.2l0,0
						C-105.4-296.9-105.8-298-106.2-299 M-473.7-296.3L-473.7-296.3L-473.7-296.3L-473.7-296.3z M-473.7-296.3L-473.7-296.3
						L-473.7-296.3L-473.7-296.3 M-106.3-299.3l-63.7-16.3l0,0l0,0c-1.1-1.3-2.3-2.7-3.5-4l0,0l65.7,16.8c0.6,1.2,1,2.5,1.5,3.8l0,0
						C-106.2-299.1-106.2-299.2-106.3-299.3 M-472.2-299.1l-46.9-12.1c0.5-0.9,0.9-1.9,1.3-2.7l0,0l47.2,12.1
						C-471.3-300.9-471.7-300-472.2-299.1L-472.2-299.1L-472.2-299.1z M-159.2-300.3L-159.2-300.3L-159.2-300.3z M-469-304.5
						L-469-304.5L-469-304.5L-469-304.5 M-469-304.5L-469-304.5L-469-304.5L-469-304.5L-469-304.5 M-516.4-316.7
						c2-3.8,4-7.4,6.2-10.9l0,0c-0.6,0.9-1.1,1.8-1.7,2.7l0,0l48.5,12.4l0,0l0,0c-0.6,0.9-1.3,1.7-2,2.6l0,0l-48.1-12.4
						c-0.6,0.9-1,1.8-1.5,2.7l0,0l47.8,12.3c-0.6,0.9-1.2,1.8-1.8,2.7l0,0L-516.4-316.7z M-177.4-323.8L-177.4-323.8L-177.4-323.8
						c-0.3-0.3-0.6-0.6-0.8-0.8l0,0c-1.2-1.2-2.4-2.4-3.7-3.5l0,0l71,18.2c0,0,0-0.1-0.1-0.1l0,0c0,0,0,0.1,0.1,0.2l0,0l0,0
						c0.6,1.2,1.1,2.4,1.7,3.5l0,0L-177.4-323.8z M-467.2-307.2L-467.2-307.2L-467.2-307.2L-467.2-307.2z M-467.2-307.2
						L-467.2-307.2L-467.2-307.2L-467.2-307.2 M-519.2-311.2c-0.3,0.7-0.6,1.4-1,2.1l0,0C-519.9-309.7-519.5-310.4-519.2-311.2
						 M-111.5-311.2c0.3,0.4,0.4,0.8,0.6,1.2l0,0C-111.1-310.4-111.4-310.8-111.5-311.2 M-111.6-311.5c0,0.1,0.1,0.2,0.1,0.3l0,0
						C-111.6-311.3-111.6-311.4-111.6-311.5 M-112.6-313.5L-112.6-313.5c0.3,0.6,0.6,1.3,0.9,2.1l0,0
						C-112-312.1-112.3-312.8-112.6-313.5 M-463.4-312.5L-463.4-312.5L-463.4-312.5C-463.4-312.5-463.4-312.5-463.4-312.5
						 M-187.1-332.6c-2.1-1.7-4.1-3.2-6.3-4.7l0,0l0,0l79,20.3l0,0l0,0l0,0l0,0l0,0c0.6,1.2,1.2,2.4,1.9,3.6l0,0L-187.1-332.6z
						 M-461.4-315.1l-48.9-12.5c0.6-0.9,1.2-1.8,1.7-2.7l0,0l49.3,12.7C-459.9-316.8-460.7-315.9-461.4-315.1L-461.4-315.1
						L-461.4-315.1z M-170-315.6L-170-315.6L-170-315.6L-170-315.6 M-116.5-320.7l-48.2-12.4l-36.4-9.2l84.5,21.5
						c0.7,1.2,1.3,2.5,2.1,3.8l0,0C-115.1-318.3-115.8-319.6-116.5-320.7 M-459.2-317.7L-459.2-317.7L-459.2-317.7L-459.2-317.7
						L-459.2-317.7z M-173.5-319.7L-173.5-319.7L-173.5-319.7z M-456.9-320.3L-456.9-320.3L-456.9-320.3L-456.9-320.3 M-456.9-320.3
						L-456.9-320.3L-456.9-320.3L-456.9-320.3L-456.9-320.3 M-506.7-333c0.6-0.9,1.2-1.8,1.8-2.7l0,0l50.4,12.9
						c-0.8,0.9-1.6,1.7-2.4,2.5l0,0L-506.7-333z M-503.1-338.3c1.2-1.8,2.6-3.5,4-5.3l0,0c-0.7,0.9-1.3,1.7-2.1,2.6l0,0l51.6,13.2
						c-0.9,0.8-1.7,1.7-2.6,2.4l0,0L-503.1-338.3z M-499-343.6c0.8-0.9,1.6-1.9,2.4-2.8l0,0c-0.1,0.1-0.2,0.2-0.3,0.3l0,0l53.1,13.6
						c-0.9,0.8-1.9,1.6-2.8,2.4l0,0L-499-343.6z M-508.6-330.4c0.3-0.4,0.6-0.8,0.8-1.2l0,0C-508-331.2-508.2-330.7-508.6-330.4
						L-508.6-330.4L-508.6-330.4z M-507.5-331.9c-0.1,0.2-0.2,0.3-0.3,0.4l0,0C-507.7-331.7-507.6-331.8-507.5-331.9 M-506.7-333
						L-506.7-333c-0.3,0.4-0.5,0.7-0.7,1.1l0,0C-507.3-332.3-507.1-332.7-506.7-333 M-440.9-334.9L-440.9-334.9L-440.9-334.9
						L-440.9-334.9 M-440.9-334.9l-53.9-13.9c0.7-0.9,1.5-1.7,2.3-2.5l0,0l54.8,14.1C-438.8-336.5-439.8-335.7-440.9-334.9
						L-440.9-334.9L-440.9-334.9 M-437.7-337.3L-437.7-337.3L-437.7-337.3L-437.7-337.3 M-490.2-353.9c0.8-0.9,1.6-1.7,2.4-2.5l0,0
						l56.9,14.6c-1.2,0.7-2.4,1.5-3.5,2.2l0,0L-490.2-353.9z M-485.2-358.9c0.9-0.9,1.7-1.7,2.6-2.4l0,0l59.5,15.3
						c-1.3,0.7-2.7,1.4-3.9,2.1l0,0L-485.2-358.9z M-494.8-348.8c-0.6,0.8-1.3,1.5-2,2.3l0,0C-496.1-347.2-495.4-348-494.8-348.8
						 M-480.1-363.8c0.9-0.8,1.8-1.7,2.7-2.4l0,0l62.6,16.1c-1.5,0.6-3,1.3-4.4,2l0,0L-480.1-363.8z M-474.4-368.6
						c0.9-0.8,2-1.6,3-2.4l0,0l66.6,17.1c-1.7,0.6-3.5,1.2-5.1,1.8l0,0L-474.4-368.6z M-404.8-353.9L-404.8-353.9L-404.8-353.9
						L-404.8-353.9z M-404.8-353.9L-404.8-353.9L-404.8-353.9L-404.8-353.9 M-468.4-373.4c1-0.8,2.1-1.6,3.2-2.3l0,0l72.3,18.6l0,0
						c-2.1,0.5-4.2,0.9-6.3,1.5l0,0L-468.4-373.4z M-461.9-378c1.1-0.8,2.3-1.5,3.4-2.3l0,0l81.2,20.8l0,0c-2.8,0.3-5.6,0.6-8.4,0.9
						l0,0L-461.9-378z M-454.9-382.5c1.2-0.7,2.4-1.5,3.7-2.2l0,0l0,0c0.1,0,0.1-0.1,0.2-0.1l0,0c-0.1,0-0.1,0.1-0.2,0.1l0,0
						l96.7,24.8h-12c-0.1,0-0.2,0-0.3,0l0,0L-454.9-382.5z M-293.4-359.8l-136.7-35.1c1.7-0.6,3.2-1.2,4.9-1.9l0,0l144.1,36.9
						L-293.4-359.8L-293.4-359.8L-293.4-359.8z M-317.8-359.8l-121.3-31.1c1.4-0.7,2.9-1.3,4.4-2l0,0l129.1,33.2L-317.8-359.8
						L-317.8-359.8z M-342.3-359.8l-105.1-26.9c1.3-0.7,2.7-1.4,4-2.1l0,0l113.2,29.1H-342.3z M-482.8-361.4
						c0.9-0.9,1.8-1.7,2.7-2.4l0,0l0,0C-480.9-363-481.9-362.2-482.8-361.4L-482.8-361.4L-482.8-361.4z M-477.3-366.3
						c0.8-0.7,1.6-1.3,2.4-2.1l0,0C-475.7-367.6-476.5-366.9-477.3-366.3L-477.3-366.3L-477.3-366.3z M-474.5-368.6
						c-0.2,0.1-0.3,0.3-0.4,0.3l0,0C-474.7-368.4-474.6-368.6-474.5-368.6 M-471.5-371L-471.5-371L-471.5-371z M-468.4-373.4
						c-1,0.8-2.1,1.6-3.1,2.4l0,0C-470.4-371.8-469.4-372.5-468.4-373.4 M-465.2-375.7c0.4-0.3,0.8-0.6,1.1-0.8l0,0
						C-464.5-376.2-464.8-376-465.2-375.7L-465.2-375.7L-465.2-375.7z M-463-377.3c-0.4,0.3-0.8,0.6-1.1,0.8l0,0
						C-463.7-376.7-463.4-377-463-377.3 M-461.9-378L-461.9-378c-0.3,0.3-0.7,0.5-1,0.7l0,0C-462.6-377.5-462.2-377.8-461.9-378
						 M-450.8-384.9c-0.1,0.1-0.2,0.1-0.3,0.2l0,0C-451-384.8-450.9-384.8-450.8-384.9 M-447.4-386.8L-447.4-386.8
						c-1.2,0.6-2.4,1.2-3.5,2l0,0C-449.8-385.5-448.6-386.2-447.4-386.8 M-443.3-388.9c1.4-0.7,2.7-1.4,4.2-2.1l0,0
						C-440.6-390.3-441.9-389.6-443.3-388.9L-443.3-388.9L-443.3-388.9z"/>
				</g>
				<g transform="matrix(0.44807776786958026 0 0 -0.4480777678695803 -23.712185860104512 22.643609999289254)">
					<path class="st8" d="M-207.6-259.5l-112.4-28.8h12.3l98.2,25.2C-208.8-262-208.2-260.8-207.6-259.5 M-203.4-245.9l-163-41.8
						c2.9-0.4,5.8-0.6,8.9-0.6h0.9l152.6,39.1C-203.7-248.1-203.5-247-203.4-245.9 M-344.4-288.4h12.2L-206-256
						c0.5,1.1,0.8,2.3,1.2,3.5L-344.4-288.4z M-202.9-239.5l-175.7-45.1c1.7-0.7,3.5-1.2,5.3-1.8l170.2,43.7
						C-202.9-241.7-202.9-240.6-202.9-239.5 M-421-392.7l136.8,35.1h-12.3l-129.1-33.2c0.8-0.3,1.6-0.7,2.4-1
						C-422.5-392.1-421.8-392.4-421-392.7 M-442.1-382.4c1.2-0.7,2.5-1.4,3.8-2.1l105.1,26.9h-12.2L-442.1-382.4z M-308.7-357.6
						h-12.2l-113.3-29.1c1.4-0.7,2.7-1.4,4.2-2.1L-308.7-357.6z M-456-373.5c1.1-0.8,2.2-1.6,3.3-2.3l76.2,19.5
						c-2.4,0.4-4.8,0.8-7.1,1.3L-456-373.5z M-357.6-357.6c-3.5,0-7.1,0.2-10.6,0.5l-81.2-20.9c1.2-0.8,2.4-1.5,3.5-2.2
						L-357.6-357.6z M-459.3-371.1l69.2,17.7c-1.9,0.6-3.8,1.1-5.6,1.7l-66.6-17.1C-461.3-369.6-460.3-370.3-459.3-371.1
						 M-398-270.7c0.7-0.9,1.6-1.7,2.4-2.5l125.5,32.1h-12.3L-398-270.7z M-86.4-197.1l-163.8-42c-0.4-0.7-0.7-1.1-0.9-1.4
						c-0.1-0.1-0.3-0.2-0.6-0.3c-0.6-0.3-0.9-0.3-1.5-0.3h-4.7l-135-34.7c0.9-0.9,2-1.7,2.9-2.4l303.7,78V-197.1z M-86.4-203.4
						l-300.3-77c1.2-0.8,2.5-1.5,3.8-2.1l296.6,76V-203.4z M-224.7-279.6c2.1,1.4,4,2.9,5.8,4.7l-52.1-13.4h12.2L-224.7-279.6z
						 M-211.9-266.9l-83.6-21.4h12.2l68.3,17.5C-213.9-269.6-212.9-268.3-211.9-266.9 M-272.1-357.6l-144.1-36.9
						c1.3-0.5,2.7-1,4.1-1.5l151.2,38.4H-272.1L-272.1-357.6z M-134.4-118.5l46.1,11.8c-0.2,1-0.3,2-0.6,3l-45.9-11.8
						C-134.8-116.5-134.6-117.5-134.4-118.5 M-478.5-128.3l-47.3-12.2v-3.2l47.2,12.1C-478.6-130.4-478.5-129.4-478.5-128.3
						 M-478.6-134.6l-47.2-12.1v-3.2l47.2,12.1V-134.6z M-478.6-140.9l-47.2-12.1v-3.2l47.2,12.1V-140.9z M-478.2-123.1l-47.7-12.1
						v-2.1l47.6,12.2C-478.2-124.4-478.2-123.7-478.2-123.1 M-504.3-319.9l48.1,12.4c-0.6,0.9-1.2,1.7-1.9,2.7l-47.8-12.3
						C-505.3-318.1-504.9-319.1-504.3-319.9 M-478.6-147.2l-47.2-12.1v-3.2l47.2,12.1V-147.2z M-510-308.9l46.9,12.1
						c-0.6,0.9-1,1.8-1.5,2.7l-46.7-12C-510.9-307-510.5-308-510-308.9 M-507.3-314.5l47.5,12.2c-0.6,0.9-1.1,1.8-1.7,2.7
						l-47.2-12.1C-508.2-312.6-507.8-313.6-507.3-314.5 M-512.6-303.2c0-0.1,0.1-0.1,0.1-0.2l46.5,12c-0.5,0.9-0.9,1.8-1.3,2.7
						l-46.4-11.9C-513.5-301.3-513.1-302.2-512.6-303.2 M-478.6-209.9l-47.2-12.1v-3.2l47.2,12.1V-209.9z M-478.6-197.3l-47.2-12.1
						v-3.2l47.2,12.1V-197.3z M-478.6-216.2l-47.2-12.1v-3.2l47.2,12.1V-216.2z M-478.6-203.6l-47.2-12.1v-3.2l47.2,12.1V-203.6z
						 M-478.6-191.1l-47.2-12.1v-3.2l47.2,12.1V-191.1z M-478.6-178.5l-47.2-12.1v-3.2l47.2,12.1V-178.5z M-478.6-166l-47.2-12.1
						v-3.2l47.2,12.1V-166z M-478.6-159.7l-47.2-12.1v-3.2l47.2,12.1V-159.7z M-478.6-153.4l-47.2-12.1v-3.2l47.2,12.1V-153.4z
						 M-478.6-172.2l-47.2-12.1v-3.2l47.2,12.1V-172.2z M-501.1-325.5l48.9,12.5c-0.7,0.9-1.3,1.7-2.1,2.6l-48.5-12.4
						C-502.2-323.7-501.7-324.5-501.1-325.5 M-250.1-157.5v-3.2l110.2,28.3h-12.2L-250.1-157.5z M-107.4-318.5
						c0.7,1.2,1.3,2.4,2,3.6l-78.9-20.3c-2.4-1.7-5-3.4-7.6-5l36.4,9.2L-107.4-318.5z M-133.6-130.8l46.7,12c-0.1,1-0.2,2.1-0.3,3.1
						l-46.5-11.9C-133.6-128.7-133.6-129.8-133.6-130.8 M-133.9-124.5l46.3,11.9c-0.2,1-0.3,2.1-0.4,3.1l-46.2-11.8
						C-134-122.5-133.9-123.6-133.9-124.5 M-135.4-112.4l45.8,11.8c-0.3,1-0.4,2-0.6,3l-45.7-11.8
						C-135.7-110.5-135.5-111.4-135.4-112.4 M-136.6-106.5l45.7,11.8c-0.3,1-0.5,2-0.7,2.9l-45.7-11.8
						C-137-104.5-136.8-105.5-136.6-106.5 M-250.1-232.9v-3.2l163.8,42v2.4h-1.1L-250.1-232.9z M-100-304c0.5,1.1,0.9,2.2,1.4,3.4
						l-65.7-16.8c-1.2-1.4-2.6-2.7-3.9-4.2l68.2,17.5C-100.1-304-100-304-100-304 M-86.4-212.8v3.2l-113.5-29.2h12.2L-86.4-212.8z
						 M-86.4-215.9l-89.1-22.8h6.5h5.7l76.9,19.7L-86.4-215.9L-86.4-215.9z M-178-330.3l74.6,19.1c0.6,1.2,1.2,2.4,1.7,3.5l-71-18.1
						C-174.5-327.4-176.3-329-178-330.3 M-93.6-286.8l-58.8-15.1c-0.8-1.2-1.7-2.5-2.5-3.8l60.3,15.4
						C-94.3-289.1-93.9-287.9-93.6-286.8 M-95.9-293.6l-61.9-15.9c-1-1.3-2.1-2.7-3.2-3.9l63.7,16.3
						C-96.7-296-96.3-294.8-95.9-293.6 M-86.4-234.7l-47.6-12.2c-0.1-1.1-0.2-2.1-0.3-3.2l47.8,12.3V-234.7z M-86.4-241l-48.1-12.4
						c-0.2-1.1-0.3-2.2-0.5-3.2l48.5,12.4C-86.4-243.1-86.4-242.1-86.4-241 M-91.6-280l-56.4-14.5c-0.7-1.2-1.3-2.4-2.1-3.7
						l57.5,14.7C-92.2-282.2-91.9-281.1-91.6-280 M-86.4-222.2l-64.6-16.5h12.2l52.4,13.5L-86.4-222.2L-86.4-222.2z M-86.4-228.5
						l-47.2-12.1c0-1-0.1-2.1-0.1-3.2l47.3,12.1L-86.4-228.5L-86.4-228.5z M-90-273.3l-54.3-13.9c-0.6-1.2-1.2-2.4-1.7-3.6
						l55.3,14.2C-90.5-275.5-90.3-274.5-90-273.3 M-88.8-266.7l-52.5-13.5c-0.5-1.2-0.9-2.4-1.4-3.5l53.4,13.7
						C-89.1-268.9-88.9-267.8-88.8-266.7 M-87-253.7l-49.9-12.8c-0.3-1.1-0.6-2.3-0.9-3.4l50.5,12.9
						C-87.3-255.9-87.2-254.8-87-253.7 M-87.7-260.2l-51.1-13.1c-0.4-1.2-0.7-2.3-1.2-3.5l51.8,13.3
						C-88-262.4-87.9-261.3-87.7-260.2 M-86.5-247.4l-49-12.5c-0.3-1.1-0.4-2.2-0.6-3.3l49.4,12.7
						C-86.7-249.5-86.6-248.3-86.5-247.4 M-362.1-173.7l-47.2-12.1v-3.2l47.2,12.1V-173.7z M-362.1-142.4l-47.2-12.1v-3.2l47.2,12.1
						V-142.4z M-362.1-161.2l-47.2-12.1v-3.2l47.2,12.1V-161.2z M-362.1-154.9l-47.2-12.1v-3.2l47.2,12.1
						C-362.1-158.1-362.1-154.9-362.1-154.9z M-273.2-81.9l-133.2-34.2c-0.4-1.1-0.7-2.3-1-3.4l146.5,37.6H-273.2z M-362.1-148.7
						l-47.2-12.1v-3.2l47.2,12.1C-362.1-151.8-362.1-148.7-362.1-148.7z M-249.4-82.1l-158.8-40.7c-0.3-1.1-0.4-2.2-0.6-3.3
						l166.8,42.8C-244.4-82.7-246.8-82.3-249.4-82.1 M-234.1-86c-0.8,0.3-1.6,0.6-2.4,0.9l-172.7-44.3c-0.1-1-0.2-2.1-0.2-3.2
						L-232-87C-232.6-86.7-233.3-86.3-234.1-86 M-228.1-89.1l-181.3-46.5v-3.2l184.7,47.3C-225.8-90.6-226.9-89.8-228.1-89.1
						 M-361.8-131.6c0.3,0.8,0.6,1.3,0.9,1.7c0.1,0.1,0.3,0.3,0.9,0.5c0.5,0.3,1.4,0.3,2.5,0.3h10.2l128.5,32.9
						c-0.9,0.9-1.8,1.7-2.7,2.4L-409.2-142v-3.2L-362-133C-362-132.1-361.8-131.7-361.8-131.6 M-362.1-136l-47.2-12.1v-3.2
						l47.2,12.1V-136z M-485.7-346.6l53.9,13.9c-1,0.8-2.1,1.6-3,2.4l-53.1-13.6C-487.2-344.9-486.4-345.7-485.7-346.6
						 M-493.9-336.1l51,13.1c-0.2,0.2-0.3,0.3-0.4,0.4c-0.7,0.7-1.4,1.4-2.1,2.1l-50.4-12.9C-495.2-334.3-494.6-335.2-493.9-336.1
						 M-481.1-351.7l55.8,14.3c-1.1,0.7-2.2,1.5-3.3,2.3l-54.8-14.1C-482.6-349.9-481.9-350.8-481.1-351.7 M-362.1-167.5l-47.2-12.1
						v-3.2l47.2,12.1C-362.1-170.6-362.1-167.5-362.1-167.5z M-489.9-341.4l52.3,13.4c-0.9,0.8-1.8,1.6-2.7,2.4l-51.6-13.2
						C-491.3-339.6-490.6-340.5-489.9-341.4 M-497.6-330.8l49.8,12.7c-0.8,0.9-1.5,1.7-2.3,2.5l-49.4-12.7
						C-498.9-329-498.2-329.9-497.6-330.8 M-362.1-180l-47.2-12.1v-3.2l47.2,12.1V-180z M-470.9-361.6l61,15.6
						c-1.4,0.6-2.7,1.3-4.2,2.1l-59.5-15.3C-472.8-360-471.8-360.8-470.9-361.6 M-476.5-356.2c0.2-0.2,0.3-0.3,0.4-0.4l58.1,14.9
						c-1.2,0.7-2.4,1.4-3.7,2.2l-56.9-14.6C-477.9-354.9-477.2-355.6-476.5-356.2 M-362.1-186.2l-47.2-12.1v-3.2l47.2,12.1
						C-362.1-189.4-362.1-186.2-362.1-186.2z M-298.4-129.2l88,22.5c-0.6,0.9-1.2,1.8-1.8,2.7l-98.4-25.2L-298.4-129.2L-298.4-129.2
						z M-154.2-67.1l47.8,12.3c-0.5,0.9-1,1.8-1.5,2.7L-156-64.4C-155.4-65.3-154.8-66.2-154.2-67.1 M-158-61.8l48.5,12.4
						c-0.6,0.9-1.1,1.8-1.7,2.7L-160-59.2C-159.4-60.1-158.7-60.9-158-61.8 M-150.7-72.4l47.2,12.1c-0.5,0.9-0.9,1.9-1.4,2.7
						l-47.5-12.2C-151.9-70.6-151.3-71.6-150.7-72.4 M-162.2-56.6l49.4,12.7c-0.6,0.9-1.2,1.8-1.7,2.7l-49.8-12.7
						C-163.7-54.9-162.9-55.8-162.2-56.6 M-147.6-77.9l46.8,12c-0.4,0.9-0.9,1.9-1.2,2.8l-47-12.1C-148.6-76.1-148.1-77-147.6-77.9
						 M-140-94.8l45.9,11.8c-0.3,0.9-0.6,1.9-0.9,2.9L-141-92C-140.7-92.9-140.4-93.9-140-94.8 M-169.1-49.2
						c0.8-0.8,1.5-1.5,2.2-2.3l50.3,12.9c-0.6,0.9-1.2,1.8-1.9,2.7l-51-13.1C-169.3-49.1-169.2-49.1-169.1-49.2 M-143.2-86.8
						c0.3-0.7,0.6-1.5,0.9-2.2l46.2,11.8c-0.3,0.9-0.7,1.9-1.1,2.8l-46.2-11.9C-143.4-86.5-143.3-86.7-143.2-86.8 M-144.8-83.5
						l46.4,11.9c-0.4,0.9-0.8,1.9-1.2,2.8l-46.6-12C-145.7-81.7-145.2-82.5-144.8-83.5 M-138.1-100.6l45.7,11.8
						c-0.3,0.9-0.6,2-0.9,2.9l-45.8-11.8C-138.7-98.6-138.4-99.6-138.1-100.6 M-273.9-129.2l66.5,17.1c-0.5,0.9-0.9,1.9-1.4,2.7
						l-77.3-19.8H-273.9z M-297.6-81.9L-403.3-109c-0.6-1.2-1.2-2.4-1.7-3.5l119.6,30.7L-297.6-81.9z M-120.3-33.3
						c-0.3,0.3-0.5,0.6-0.7,1l-52-13.3c0.4-0.3,0.7-0.7,1.1-1L-120.3-33.3z M-316.3-81.9l-83.4-21.2c-0.5-0.7-1-1.5-1.5-2.2
						l91.4,23.5L-316.3-81.9L-316.3-81.9z M-322.9-129.2l108.7,27.9c-0.7,0.9-1.4,1.7-2.2,2.6l-118.6-30.5H-322.9z M-250.1-148.1
						l61.3,15.7H-201l-49.2-12.6V-148.1z M-250.1-154.4l85.8,22h-12.2l-73.6-18.9L-250.1-154.4z M-250.1-141.9l47.2,12.1
						c-0.1,1-0.2,2.1-0.3,3.1l-46.9-12.1V-141.9z M-253.3-129.2c0.5-0.3,0.9-0.4,1.2-0.7l46.9,12.1c-0.3,0.9-0.7,1.9-1,2.8
						l-55.4-14.2H-253.3L-253.3-129.2z M-250.1-135.6l46.5,11.9c-0.2,1-0.4,2-0.6,3l-45.7-11.8v-3.2H-250.1L-250.1-135.6z
						 M-478.6-184.8l-47.2-12.1v-3.2l47.2,12.1V-184.8z M-400.9-349.9l-64.5-16.5c-0.9,0.8-1.9,1.6-2.8,2.4l62.6,16.1
						c0.3-0.1,0.5-0.3,0.7-0.3C-403.5-348.8-402.1-349.4-400.9-349.9"/>
				</g>
				<g transform="matrix(0.44807776786958026 0 0 -0.4480777678695803 -12.958319431234543 2.912505491152359)">
					<path class="st9" d="M-451.7-90c1,1.1,2.1,2.2,3.2,3.3c0.3,0.3,0.6,0.6,0.9,0.9l-69-17.7c-0.4-0.9-0.8-1.8-1.2-2.7
						c-0.1-0.3-0.3-0.6-0.3-0.8L-451.7-90L-451.7-90 M-526.9-134.4c-0.1-0.5-0.3-0.9-0.3-1.4C-527.1-135.3-527-134.8-526.9-134.4
						L-526.9-134.4z M-470.6-116.8L-470.6-116.8l-55.5-14.2c-0.3-1.1-0.6-2.2-0.8-3.3l54.5,14C-471.8-119.2-471.2-118-470.6-116.8
						 M-529.7-150.8L-529.7-150.8c0,0.2,0.1,0.3,0.1,0.5C-529.6-150.5-529.6-150.6-529.7-150.8 M-477.9-134.4
						c0.4,1.2,0.8,2.3,1.2,3.5l0,0l-52.1-13.3c0.2,1.1,0.4,2.2,0.6,3.3c-0.6-3.1-1-6.2-1.4-9.4c0.1,0.9,0.3,1.9,0.4,2.8
						L-477.9-134.4z M-474.4-124.8c0.2,0.3,0.3,0.6,0.4,0.9l0,0l-53.6-13.8c-0.3-1.1-0.4-2.2-0.6-3.3l52.8,13.5
						C-475.1-126.6-474.7-125.7-474.4-124.8 M-468.6-113.1c0.7,1.2,1.4,2.4,2.1,3.7l0,0l-57.8-14.8c-0.3-1.1-0.6-2.3-0.9-3.4
						L-468.6-113.1L-468.6-113.1z M-520.9-114c-0.1-0.3-0.2-0.6-0.3-0.8C-521-114.5-521-114.2-520.9-114L-520.9-114z M-524.3-124.3
						L-524.3-124.3c0.3,1.1,0.7,2.3,1,3.4C-523.6-122-523.9-123.1-524.3-124.3 M-455.3-94.1l-64.3-16.5c-0.5-1.2-0.9-2.3-1.3-3.5
						l62.3,16C-457.5-96.7-456.4-95.3-455.3-94.1 M-525.2-127.7c-0.3-1.1-0.6-2.2-0.9-3.4C-525.8-129.9-525.5-128.8-525.2-127.7
						L-525.2-127.7z M-461.5-101.9L-461.5-101.9l-60.6-15.6c-0.4-1.1-0.8-2.3-1.1-3.4l59.2,15.2
						C-463.2-104.4-462.4-103.1-461.5-101.9 M-530.7-163.6L-530.7-163.6c0.1,1,0.1,2.1,0.2,3.2
						C-530.7-161.5-530.7-162.5-530.7-163.6 M-483.6-267.6v3.2l-47.2-12.1c0-1,0-2.1,0-3.2L-483.6-267.6z M-479.9-141.2
						L-479.9-141.2c0.3,1.1,0.6,2.3,0.9,3.4l0,0l-50.7-13c-0.2-1.1-0.3-2.1-0.4-3.2L-479.9-141.2z M-483.6-260.1l-47.2-12v-1.2
						l47.2,12.1V-260.1z M-530.9-276.6c0,0.3,0,0.6,0,1C-530.9-275.9-530.9-276.2-530.9-276.6L-530.9-276.6z M-480.7-144.5
						l-49.6-12.7c0.1,1.1,0.2,2.1,0.3,3.2c-0.3-2.1-0.4-4.2-0.6-6.4l49.2,12.6C-481.2-146.7-481-145.6-480.7-144.5 M-530.9-169.9
						L-530.9-169.9c0,1,0,2.1,0.1,3.2C-530.9-167.8-530.9-168.9-530.9-169.9 M-482.5-154.3L-482.5-154.3c0.2,1.1,0.3,2.2,0.5,3.2
						l-48.7-12.5c-0.1-1-0.1-2.1-0.1-3.2L-482.5-154.3z M-483-157.6l-48-12.3c0-0.6,0-1.1,0-1.7v-1.3l47.7,12.1
						C-483.1-159.7-483-158.7-483-157.6 M-255.2-212.1v-3.2l163.8,42v3.1c0,0.5,0,1,0,1.5c0-0.5,0-0.9,0-1.4L-255.2-212.1z
						 M-209.8-62.4c1.4-0.6,2.8-1.3,4.2-2.1l60.1,15.4c-0.9,0.8-1.8,1.7-2.7,2.4L-209.8-62.4z M-145.4-49.1L-145.4-49.1
						c0.1-0.2,0.3-0.3,0.4-0.3C-145.2-49.4-145.3-49.2-145.4-49.1 M-142.9-51.5c-0.3,0.3-0.5,0.5-0.7,0.7
						C-143.3-51.1-143.1-51.3-142.9-51.5L-142.9-51.5z M-143.5-50.8c-0.5,0.5-1,0.9-1.6,1.4C-144.6-49.9-144.1-50.4-143.5-50.8
						 M-197.8-68.8l57.5,14.7c-0.3,0.3-0.5,0.5-0.7,0.7c-0.6,0.6-1.2,1.2-1.9,1.8l-58.7-15C-200.3-67.3-199.1-68-197.8-68.8
						 M-133.2-61.6c-0.8,0.9-1.6,1.7-2.3,2.5C-134.7-59.9-133.9-60.8-133.2-61.6L-133.2-61.6z M-181.5-80.3c1.2-0.9,2.3-2,3.4-3
						c-0.3,0.2-0.4,0.4-0.6,0.6l52,13.3c0.2-0.3,0.4-0.5,0.6-0.7c-1.6,2-3.2,3.9-4.8,5.9c0.7-0.9,1.4-1.7,2.1-2.6L-181.5-80.3z
						 M-255.2-202.7l163.5,41.9c0-0.6,0.1-1.2,0.1-1.8c0,0.7-0.1,1.3-0.1,2.1L-255.2-202V-202.7z M-187.6-75.6
						c1-0.8,2.1-1.6,3.1-2.4l0,0l53.6,13.7c-0.7,0.9-1.5,1.7-2.2,2.6L-187.6-75.6L-187.6-75.6 M-255.2-209l163.7,42
						c0,1-0.1,2.1-0.1,3.2l-163.6-42V-209z M-190.8-73.3L-190.8-73.3l55.4,14.2c-0.8,0.9-1.6,1.7-2.4,2.5l-56.3-14.5
						C-193-71.7-191.9-72.5-190.8-73.3 M-219.2-58.5c1.7-0.6,3.2-1.2,4.9-1.9l63.3,16.2c-0.9,0.8-2,1.6-2.9,2.4L-219.2-58.5
						L-219.2-58.5z M-518.1-107.1c-0.5-1.2-0.9-2.4-1.4-3.5C-519.1-109.4-518.6-108.2-518.1-107.1L-518.1-107.1z M-496.9-70.4
						c0,0.1,0.1,0.1,0.1,0.2l0,0C-496.8-70.2-496.8-70.3-496.9-70.4 M-490.3-62.3c-0.1-0.1-0.1-0.2-0.2-0.3
						C-490.3-62.4-490.3-62.3-490.3-62.3L-490.3-62.3z M-277.3-4.5l-209.3-53.7c1.3,1.4,2.7,2.8,4,4.2l193.1,49.5h-12.2l-176.5-45.3
						c-1.2-1.1-2.4-2.2-3.5-3.3c-3-3-5.9-6-8.6-9.2l225.3,57.8L-277.3-4.5L-277.3-4.5z M-493.6-66.3c1,1.2,2.1,2.5,3.2,3.8
						c-2.2-2.5-4.2-5.1-6.3-7.7l253.4,65c-3.3,0.3-6.5,0.5-9.8,0.6L-493.6-66.3z M-499.7-74.1c0.9,1.2,1.8,2.5,2.7,3.7
						C-497.8-71.5-498.7-72.8-499.7-74.1 M-478.2-49.7c1.2,1.1,2.4,2.3,3.7,3.4C-475.7-47.5-477-48.5-478.2-49.7 M-502.3-77.9
						c-0.9-1.2-1.7-2.5-2.4-3.8C-504-80.4-503.2-79.1-502.3-77.9L-502.3-77.9z M-255.3-4.6c0.7,0,1.4-0.1,2.1-0.1l0,0
						C-253.9-4.6-254.6-4.6-255.3-4.6 M-235.6-6c-1,0.2-2,0.3-3,0.4C-237.7-5.8-236.6-6-235.6-6 M-239.8-5.6
						c-0.9,0.1-1.9,0.3-2.8,0.3C-241.6-5.3-240.7-5.4-239.8-5.6 M-238.6-5.7c-0.4,0.1-0.8,0.1-1.2,0.2C-239.4-5.6-239-5.7-238.6-5.7
						 M-235.6-6c0.3,0,0.5-0.1,0.7-0.1l0,0C-235.1-6.1-235.4-6.1-235.6-6 M-511.8-93.6c-0.5-0.9-0.9-1.7-1.4-2.7
						C-512.7-95.4-512.2-94.5-511.8-93.6 M-511.3-92.7c-0.2-0.3-0.3-0.6-0.5-0.9C-511.6-93.4-511.5-93-511.3-92.7L-511.3-92.7z
						 M-421.1-66.4L-509.3-89c-0.7-1.2-1.3-2.4-2.1-3.6l81,20.8C-427.3-70-424.3-68.2-421.1-66.4 M-513.2-96.4L-513.2-96.4
						C-513.2-96.4-513.1-96.3-513.2-96.4C-513.1-96.3-513.2-96.4-513.2-96.4 M-442.8-81.4c1.8,1.6,3.7,3.2,5.6,4.6l0,0l-76-19.5
						c-0.6-1.2-1.2-2.4-1.7-3.6L-442.8-81.4C-442.7-81.4-442.8-81.4-442.8-81.4 M-222.9-8.3c0.7-0.2,1.4-0.3,2.1-0.5l0,0
						C-221.5-8.7-222.2-8.5-222.9-8.3 M-234.9-6.2L-499.7-74c-0.9-1.2-1.8-2.5-2.7-3.8l274.9,70.5C-229.9-6.9-232.5-6.5-234.9-6.2
						 M-473.9-46c-0.2-0.2-0.3-0.3-0.6-0.5C-474.3-46.2-474.1-46.1-473.9-46 M-243.3-5.2c0.3,0,0.5-0.1,0.6-0.1
						C-242.8-5.2-243.1-5.2-243.3-5.2L-243.3-5.2L-243.3-5.2z M-514.9-99.9c-0.6-1.2-1.1-2.4-1.7-3.5
						C-516-102.3-515.5-101.1-514.9-99.9L-514.9-99.9z M-405.5-59.4c7.9,3,16.2,5.1,24.7,6.3l0,0l166.1,42.6
						c0.9-0.3,1.8-0.6,2.7-0.8c-2.9,0.9-5.9,1.7-8.8,2.4l-284-72.8c-0.8-1.2-1.6-2.4-2.3-3.7L-405.5-59.4L-405.5-59.4 M-198.8-15.7
						c-0.1,0-0.1,0-0.2,0.1C-199-15.7-198.9-15.7-198.8-15.7L-198.8-15.7z M-278.1-51.7L-177.5-26c1.2-0.7,2.5-1.4,3.8-2.2
						c-2.5,1.5-5,2.9-7.6,4.4l-108.9-27.9L-278.1-51.7L-278.1-51.7z M-326.2-4.5l-141.5-36.3c-1.9-1.5-3.7-3-5.6-4.6L-314-4.5
						H-326.2z M-203.2-14.1c1.4-0.5,2.7-1,4.2-1.6C-200.4-15.2-201.8-14.6-203.2-14.1 M-156.9-39.5L-156.9-39.5c1-0.8,2.1-1.6,3-2.4
						C-154.9-41.1-155.9-40.3-156.9-39.5 M-194.2-17.7L-194.2-17.7c0.3-0.2,0.6-0.3,0.9-0.4C-193.6-17.9-193.9-17.8-194.2-17.7
						 M-203.8-13.8L-203.8-13.8c0.3-0.1,0.4-0.2,0.6-0.3C-203.4-14-203.6-13.9-203.8-13.8 M-166.6-32.6c-1.2,0.8-2.3,1.5-3.5,2.2
						C-169-31.1-167.8-31.8-166.6-32.6L-166.6-32.6z M-230.2-55.2L-230.2-55.2c2-0.5,3.9-1,5.8-1.7l67.5,17.3
						c-1,0.8-2.1,1.6-3.2,2.4L-230.2-55.2z M-258.5-51.7c1.5,0,3.1,0,4.6-0.1l0,0l83.8,21.5c-1.2,0.8-2.4,1.5-3.6,2.2l-92-23.6
						L-258.5-51.7L-258.5-51.7z M-163.3-34.9L-163.3-34.9c1-0.8,2.1-1.5,3.2-2.3C-161.1-36.4-162.2-35.6-163.3-34.9 M-244.6-52.6
						c2.6-0.3,5.1-0.7,7.7-1.2l73.6,18.9c-1.1,0.8-2.2,1.5-3.4,2.3L-244.6-52.6C-244.5-52.6-244.5-52.6-244.6-52.6 M-189.7-19.6
						c-1.2,0.6-2.4,1.1-3.5,1.6C-192.1-18.6-190.9-19.1-189.7-19.6L-189.7-19.6z M-467.7-40.8L-467.7-40.8c0.5,0.3,0.9,0.7,1.2,1
						C-466.9-40.2-467.3-40.5-467.7-40.8 M-473.3-45.3c-0.3-0.2-0.5-0.4-0.6-0.6C-473.7-45.7-473.4-45.6-473.3-45.3L-473.3-45.3z
						 M-465.3-38.9c-0.4-0.3-0.8-0.6-1.2-0.9C-466-39.5-465.6-39.2-465.3-38.9 M-350.6-4.5l-103.2-26.5c-2.5-1.7-5-3.3-7.5-5
						l123,31.6h-12.3L-350.6-4.5L-350.6-4.5z M-302.5-51.7l117,30c-1.4,0.7-2.8,1.4-4.2,2.1l-125-32.1H-302.5z M-465.3-38.9
						c1.2,0.9,2.6,2,3.8,2.9C-462.7-37-464-37.9-465.3-38.9 M-363.6-51.7c0.4,0,0.8,0,1.2,0h11.1l147.6,37.9
						c-1.7,0.6-3.5,1.2-5.3,1.8L-363.6-51.7z M-327-51.7l132.8,34c-1.6,0.7-3.2,1.3-4.7,2l-140.3-36H-327z M-444.5-25.4
						c-1.6-0.9-3.2-1.7-4.7-2.7C-447.6-27.2-446.1-26.3-444.5-25.4L-444.5-25.4z M-377.6-5.1l-53.9-13.8c-4.5-2-8.8-4.2-13.1-6.5
						l81.7,20.9C-367.8-4.5-372.7-4.7-377.6-5.1 M-377.6-5.1c-4.4-0.4-8.8-0.9-13-1.6C-386.3-6-381.9-5.5-377.6-5.1 M-431.5-19h0.1
						c1,0.5,2.1,0.9,3.1,1.3C-429.4-18-430.4-18.5-431.5-19 M-523.7-324.8L-523.7-324.8c-0.1,0.2-0.1,0.4-0.2,0.6
						C-523.7-324.5-523.7-324.6-523.7-324.8 M-521.7-330.6c-0.3,0.9-0.6,1.9-0.9,2.9l0,0C-522.4-328.7-522.1-329.7-521.7-330.6
						 M-530.4-289L-530.4-289c0,0.3,0,0.5-0.1,0.7C-530.4-288.5-530.4-288.7-530.4-289 M-525.9-316.8c-0.1,0.3-0.1,0.5-0.2,0.7l0,0
						C-526-316.3-526-316.6-525.9-316.8 M-483.6-280.1c0,1-0.1,2.1-0.1,3.2l-46.7-12c0.1-1,0.2-2.1,0.3-3.1L-483.6-280.1z
						 M-530.6-286.6c0-0.6,0.1-1.1,0.1-1.7C-530.5-287.7-530.5-287.2-530.6-286.6 M-530.6-285.8c0-0.3,0-0.5,0.1-0.7
						C-530.6-286.4-530.6-286.2-530.6-285.8L-530.6-285.8z M-525.5-318.3c-0.2,0.6-0.3,1-0.4,1.6
						C-525.8-317.3-525.7-317.8-525.5-318.3 M-476.8-316c-0.3,0.9-0.7,1.9-1,2.9l0,0l-45.8-11.8c0.3-0.9,0.6-2,0.9-2.9L-476.8-316
						L-476.8-316 M-481-301.3l-45.7-11.8c0.3-1,0.5-2,0.7-3l45.7,11.8C-480.6-303.3-480.7-302.4-481-301.3 M-525.3-319
						c-0.1,0.3-0.2,0.5-0.2,0.7C-525.4-318.5-525.4-318.7-525.3-319L-525.3-319z M-478.7-310.2c-0.3,0.9-0.6,2-0.9,2.9l0,0
						l-45.7-11.8c0.3-0.9,0.6-2,0.8-2.9L-478.7-310.2z M-483.6-270.7l-47.1-12.1c0.1-1,0.1-2.1,0.2-3.1l46.9,12.1L-483.6-270.7
						L-483.6-270.7z M-255.2-252.8l92.2,23.6h-11h-1.2l-79.8-20.5v-3.2H-255.2z M-255.2-246.6l67.7,17.4h-12.2l-55.4-14.2V-246.6z
						 M-255.2-259.2l116.5,29.9h-0.1H-151L-255.3-256L-255.2-259.2L-255.2-259.2z M-91.5-201.5l-62.2-15.9h12.2l49.9,12.8
						L-91.5-201.5L-91.5-201.5z M-255.2-265.4l141.1,36.2h-12.2l-128.8-33V-265.4z M-91.5-195.2l-86.6-22.2h12.2l74.3,19.1
						L-91.5-195.2L-91.5-195.2z M-255.2-269l156.5,39.8h-3.3l-153.2-39.4V-269L-255.2-269z M-91.5-188.9l-111.1-28.5h12.2l98.8,25.4
						V-188.9z M-91.5-176.4l-160-41h12.2l147.7,37.9L-91.5-176.4L-91.5-176.4z M-91.5-182.7l-135.5-34.7h12.2l123.2,31.6
						L-91.5-182.7L-91.5-182.7z M-255.2-234l18.8,4.8h-12.2l-6.5-1.7V-234z M-255.2-240.3l43.3,11.1h-12.2l-31-8V-240.3z
						 M-402.3-438c2.2-0.6,4.4-1,6.6-1.4l275.5,70.7c-0.9-1.2-1.7-2.6-2.7-3.8c2.4,3.2,4.6,6.6,6.7,10.1c-0.6-0.8-1-1.7-1.6-2.4
						L-402.3-438z M-402.4-438L-402.4-438c-1,0.3-2.1,0.5-3.1,0.8C-404.3-437.5-403.4-437.8-402.4-438 M-115.4-361.3L-115.4-361.3
						c-0.3-0.4-0.6-0.9-0.8-1.2C-115.9-362.1-115.6-361.7-115.4-361.3 M-113.1-357.6l-87.5-22.4c-3.7-2.1-7.6-4-11.6-5.7
						c-0.7-0.3-1.3-0.6-2.1-0.9l99,25.4c0.9,1.6,2,3.2,2.8,4.9C-112.7-356.8-113-357.2-113.1-357.6 M-322.8-119.7H-335l-66.6-17.1
						c-1.1-1.2-2.1-2.6-3.2-3.9L-322.8-119.7z M-481.6-298.4c-0.2,1-0.4,2-0.6,3l-45.9-11.8c0.2-1,0.4-2,0.6-3L-481.6-298.4
						L-481.6-298.4 M-414.4-243.6l47.2,12.1v0.9l-47.2-12V-243.6z M-483-289.3L-483-289.3l-46.1-11.8c0.2-1,0.3-2,0.5-3l46,11.8
						C-482.7-291.3-482.8-290.3-483-289.3 M-474.6-321.7c-0.4,0.9-0.8,1.9-1.2,2.8l-46-11.8c0.3-0.9,0.7-1.9,1-2.8L-474.6-321.7z
						 M-528.6-304.2c0.1-0.3,0.1-0.6,0.2-0.9C-528.5-304.8-528.5-304.5-528.6-304.2L-528.6-304.2z M-528-307.2L-528-307.2
						c-0.1,0.3-0.2,0.7-0.2,1C-528.1-306.5-528.1-306.8-528-307.2 M-528.4-305.1c0.1-0.3,0.2-0.7,0.2-1
						C-528.2-305.8-528.3-305.4-528.4-305.1 M-391.2-127.8c0.6,0.4,1.2,0.7,1.7,1C-390-127.1-390.6-127.4-391.2-127.8 M-401.5-136.8
						L-401.5-136.8c0.4,0.4,0.7,0.8,1,1.2C-400.9-136-401.2-136.3-401.5-136.8 M-347.2-119.7h-12.2l-31.8-8.2
						c-2.2-1.4-4.2-3-6.2-4.7L-347.2-119.7z M-91.5-207.7l-37.7-9.7h12.2l25.4,6.5L-91.5-207.7L-91.5-207.7z M-397.6-132.7
						c0.1,0.1,0.1,0.1,0.2,0.2l0,0C-397.5-132.6-397.5-132.7-397.6-132.7 M-389.2-126.6c0.6,0.4,1.2,0.7,2,1.1
						C-387.9-125.8-388.6-126.2-389.2-126.6 M-399.3-134.3c0.6,0.6,1.1,1.1,1.7,1.6C-398.1-133.2-398.7-133.8-399.3-134.3
						 M-404.8-140.9c0.1,0.1,0.1,0.2,0.2,0.3l0,0C-404.7-140.7-404.8-140.8-404.8-140.9 M-389.2-126.6c-0.1-0.1-0.2-0.1-0.3-0.2
						C-389.4-126.7-389.3-126.6-389.2-126.6 M-483.4-283.1l-46.4-11.9c0.3-2.1,0.5-4,0.8-6.1c-0.2,1-0.3,2.1-0.4,3l46.2,11.9
						C-483.3-285.2-483.4-284.2-483.4-283.1 M-91.5-217.2v3.2l-13.2-3.4h12.2L-91.5-217.2z M-391.3-127.8L-391.3-127.8
						c0,0,0.1,0,0.1,0.1C-391.2-127.8-391.2-127.8-391.3-127.8 M-344.3-278.8l-66.5-17.1c0.4-0.9,0.8-1.9,1.2-2.8L-332-279h-12.3
						V-278.8z M-414.4-256.1l47.2,12.1v3.2l-47.2-12.1V-256.1z M-414.4-249.8l47.2,12.1v3.2l-47.2-12.1V-249.8z M-414.4-268.6
						l47.2,12.1v3.2l-47.2-12.1V-268.6z M-414.4-274.9l47.2,12.1v3.2l-47.2-12.1V-274.9z M-366.5-278.3l-46.2-11.8
						c0.3-1,0.6-2,0.9-2.9l55.3,14.2h-6.1C-364.8-278.8-365.9-278.6-366.5-278.3 M-409.5-298.7c0.5-0.9,0.9-1.8,1.4-2.7
						C-408.6-300.6-409.1-299.7-409.5-298.7 M-414.2-281.1l47,12.1v3.2l-47.2-12.1c0.1-2.1,0.3-4,0.5-5.9
						C-414-283-414.1-282.1-414.2-281.1 M-404.4-306.9c-0.7,0.9-1.3,1.7-1.9,2.7c0.6-0.9,1.2-1.8,2-2.7l110.4,28.1h-1.4
						L-404.4-306.9z M-408.1-301.5c0.6-0.9,1.1-1.8,1.7-2.7l98.8,25.4h-12.2L-408.1-301.5z M-411.9-293c0.3-0.9,0.7-1.9,1-2.8
						C-411.1-295-411.5-294-411.9-293 M-414.4-262.4l47.2,12.1v3.2l-47.2-12.1V-262.4z M-413.3-287.5c0,0.1-0.1,0.3-0.1,0.3l0,0
						C-413.4-287.2-413.4-287.3-413.3-287.5 M-414.3-277.8c0,0.7,0,1.4,0,2.1C-414.4-276.4-414.4-277.1-414.3-277.8 M-412.7-290.1
						c-0.3,0.9-0.4,1.7-0.6,2.7C-413.1-288.4-412.9-289.2-412.7-290.1 M-367.2-275.3v3.2l-46.6-12.1c0.2-1,0.3-2.1,0.5-3
						L-367.2-275.3z M-413.8-284.2c0,0.1,0,0.2,0,0.3C-413.9-284-413.9-284.1-413.8-284.2L-413.8-284.2z M-414.3-278L-414.3-278
						c0,0.1,0,0.2,0,0.2S-414.3-278-414.3-278 M-260.5-395.4l-153.6-39.4c1.9-0.6,3.8-1.2,5.6-1.7l162.9,41.8
						c-4.2-0.5-8.6-0.7-12.9-0.7L-260.5-395.4z M-392.1-440.1c1.2-0.2,2.3-0.4,3.5-0.6C-389.8-440.5-390.9-440.4-392.1-440.1
						 M-388.4-440.7L-388.4-440.7c-0.1,0-0.2,0-0.3,0C-388.5-440.7-388.4-440.7-388.4-440.7 M-405.5-437.3c-1,0.3-2,0.6-3,0.8l0,0
						C-407.5-436.7-406.5-436.9-405.5-437.3 M-388.4-440.7c2.7-0.4,5.4-0.8,8.2-1l254.4,65.3c0.9,1.2,1.9,2.6,2.8,3.8L-388.4-440.7z
						 M-135.9-388.5l-211-54.1h12.2l194.8,49.9c-0.4-0.4-0.7-0.8-1.1-1.2c3.1,3,6,6.2,8.8,9.4C-133.4-385.8-134.6-387.1-135.9-388.5
						 M-141-393.8c-1.1-1-2.2-2.1-3.3-3.2l0,0C-143.2-395.9-142-394.8-141-393.8 M-144.3-396.9l-178.2-45.7h12.2l161,41.3
						C-147.5-399.9-145.9-398.3-144.3-396.9 M-189.5-427.4l-58.2-15c19,1.2,37.2,5.6,54.4,13.2C-192-428.4-190.7-427.9-189.5-427.4
						 M-168.3-415.6l-105.3-27h12.2l84,21.6C-174.2-419.3-171.2-417.5-168.3-415.6 M-370.7-442.4L-370.7-442.4c-0.2,0-0.3,0-0.4,0
						C-370.9-442.4-370.7-442.4-370.7-442.4 M-151.9-403.6c-0.9-0.8-1.8-1.5-2.7-2.2l0,0C-153.7-405.1-152.9-404.4-151.9-403.6
						 M-297.9-442.6h12.2l124.8,32.1c2.1,1.5,4.2,3.2,6.3,4.7L-297.9-442.6z M-371-442.4c-1.3,0.1-2.7,0.2-4,0.3
						C-373.7-442.2-372.4-442.3-371-442.4 M-128.8-380.4l-241.8-62c2.7-0.2,5.4-0.2,8.1-0.2h3.3l226.9,58.2
						C-131.1-383.1-129.9-381.8-128.8-380.4 M-160.9-410.6L-160.9-410.6l-0.1-0.1C-160.9-410.7-160.9-410.6-160.9-410.6
						 M-164.5-413.1c1.2,0.8,2.3,1.6,3.5,2.4C-162.1-411.5-163.3-412.3-164.5-413.1"/>
				</g>
				<g transform="matrix(0.44807776786958026 0 0 -0.4480777678695803 14.374424408809716 -2.912505491152274)">
					<path class="st10" d="M-191.1-86l52,13.2c-0.2,0.3-0.4,0.5-0.6,0.7l-52-13.3C-191.5-85.7-191.3-85.8-191.1-86 M-352.1-54.5
						l140.3,36c-1.7,0.6-3.3,1.2-5,1.9l-147.6-37.9H-352.1z M-194.5-83l52.8,13.5c-0.7,0.9-1.4,1.7-2.1,2.6l-53.6-13.7
						C-196.4-81.5-195.5-82.3-194.5-83 M-268.2-208.6l163.6,42c-0.1,1-0.1,2.1-0.2,3.1l-163.5-41.9V-208.6z M-268.2-220.2h3.8
						l160,41v3.2l-163.8-42L-268.2-220.2C-268.2-220.2-268.2-220.2-268.2-220.2z M-268.2-214.9l163.8,42c0,1,0,2.1-0.1,3.2
						l-163.7-42L-268.2-214.9L-268.2-214.9z M-278.8-54.5l92,23.6c-1.2,0.7-2.5,1.5-3.8,2.2L-291-54.5H-278.8z M-257.5-55.3l77.9,20
						c-1.2,0.8-2.3,1.5-3.5,2.2l-83.9-21.4C-263.7-54.7-260.6-55-257.5-55.3 M-303.2-54.5l108.8,28c-1.3,0.7-2.7,1.4-4.1,2.1
						l-117-30.1H-303.2z M-327.7-54.5l125,32.1c-1.2,0.6-2.4,1.1-3.5,1.6c-0.3,0.2-0.6,0.3-0.9,0.4l-132.7-34H-327.7z M-225.2-64.1
						c0.9-0.4,1.7-0.8,2.4-1.1l61.6,15.9c-0.9,0.8-1.9,1.7-2.8,2.4l-63.3-16.3C-226.6-63.5-225.9-63.8-225.2-64.1 M-214.5-69.4
						l58.7,15c-0.9,0.9-1.7,1.7-2.6,2.4l-60.2-15.3C-217.2-68-215.9-68.6-214.5-69.4 M-232.1-61.3l65.2,16.7c-1,0.8-2,1.6-3,2.4
						l-67.5-17.3C-235.6-60.1-233.8-60.7-232.1-61.3 M-243.2-57.9l70.2,18c-1.1,0.8-2.1,1.6-3.2,2.3l-73.6-18.9
						C-247.6-56.9-245.4-57.4-243.2-57.9 M-207.1-73.8l56.3,14.5c-0.8,0.9-1.7,1.7-2.4,2.5l-57.5-14.7
						C-209.5-72.3-208.3-73-207.1-73.8 M-200.5-78.3l54.4,13.9c-0.8,0.9-1.6,1.7-2.3,2.5L-203.8-76
						C-202.7-76.8-201.6-77.6-200.5-78.3 M-481.6-115.9l-56.6-14.5c-0.3-1.1-0.6-2.2-0.9-3.4l55.5,14.2
						C-482.9-118.3-482.2-117.1-481.6-115.9 M-495.4-157.1l-48.3-12.4c0-1-0.1-2.1-0.1-3.2l48,12.3
						C-495.7-159.3-495.6-158.2-495.4-157.1 M-496.6-267.2v3.2l-47.2-12.1v-2.1c0-0.3,0-0.6,0-1L-496.6-267.2z M-376.6-54.5
						L-222-14.8c-1.9,0.6-3.8,1.2-5.6,1.7l-166.2-42.6C-388.3-55-382.5-54.6-376.6-54.5 M-492.8-144l-50.1-12.8
						c-0.1-1.1-0.3-2.1-0.3-3.2l49.6,12.7C-493.4-146.1-493.2-145-492.8-144 M-271.5-7.2h-6.5L-503.3-65c-1.2-1.3-2.3-2.7-3.4-4
						l240.5,61.6C-267.9-7.3-269.6-7.2-271.5-7.2 M-302.4-7.2l-193.1-49.6c-1.3-1.3-2.7-2.7-4-4.2l209.4,53.7L-302.4-7.2L-302.4-7.2
						z M-256.3-7.9L-509.8-73c-0.9-1.2-2-2.6-2.9-3.8L-247.8-9C-250.6-8.6-253.4-8.2-256.3-7.9 M-375.4-7.2c-0.2,0-0.3,0-0.4,0
						l-81.6-21c-3.2-1.7-6.3-3.6-9.4-5.5l103.3,26.5H-375.4L-375.4-7.2z M-441.4-20.4c-1-0.5-2.1-0.9-3.2-1.4l53.9,13.9
						C-408.3-9.4-425.3-13.5-441.4-20.4 M-240.4-10.2l-274.9-70.5c-0.9-1.2-1.7-2.5-2.4-3.8l284,72.9
						C-236-11.1-238.3-10.6-240.4-10.2 M-351.3-7.2l-123-31.6c-2.1-1.6-4.2-3.2-6.4-4.8l141.6,36.4L-351.3-7.2L-351.3-7.2z
						 M-326.8-7.2l-159.3-40.9c-1.7-1.4-3.3-2.9-4.9-4.4l176.5,45.3H-326.8z M-485.3-123.1l-54.6-14c-0.3-1.1-0.5-2.2-0.7-3.3
						l53.6,13.8C-486.4-125.5-485.9-124.3-485.3-123.1 M-422.8-63.8c1.4,0.6,2.9,1.2,4.4,1.7L-520-88.2c-0.7-1.2-1.4-2.4-2.1-3.7
						l88.2,22.6C-430.5-67.3-426.7-65.5-422.8-63.8 M-490.9-137.2l-51.3-13.2c-0.2-1.1-0.3-2.1-0.4-3.2l50.7,13
						C-491.6-139.3-491.3-138.3-490.9-137.2 M-477-108.5l-59.2-15.2c-0.4-1.1-0.7-2.3-1-3.4l57.8,14.8
						C-478.7-111-477.9-109.7-477-108.5 M-488.3-130.2l-52.8-13.6c-0.3-1.1-0.4-2.2-0.6-3.3l52.1,13.3
						C-489.3-132.5-488.8-131.3-488.3-130.2 M-471.5-100.8l-62.3-16c-0.4-1.2-0.8-2.3-1.2-3.5l60.7,15.5
						C-473.5-103.4-472.5-102.1-471.5-100.8 M-443.2-74.7l-81-20.8c-0.6-1.2-1.2-2.4-1.9-3.6l76,19.5
						C-447.9-78-445.6-76.3-443.2-74.7 M-464.7-92.7l-66.5-17c-0.5-1.2-0.9-2.4-1.4-3.5l64.3,16.5
						C-467.1-95.4-465.9-94.1-464.7-92.7 M-455.7-84.2l-72.2-18.5c-0.6-1.2-1.1-2.4-1.7-3.5l69,17.7
						C-458.9-87.1-457.3-85.6-455.7-84.2 M-494.4-150.5l-49.2-12.6c-0.1-1-0.2-2.1-0.2-3.2l48.7,12.5
						C-494.8-152.8-494.6-151.7-494.4-150.5 M-148.8-391.2c1.2,1.3,2.4,2.7,3.7,4.1l-226.9-58.2h12.2L-148.8-391.2z M-393.1-444.5
						c3.2-0.3,6.4-0.6,9.5-0.7l241.8,62.1c1,1.2,2.1,2.6,3.1,3.9L-393.1-444.5z M-190.3-423.8l-84-21.6h2.8c3.6,0,7.3,0.2,10.8,0.4
						l58.2,15C-198.3-428.1-194.2-426-190.3-423.8 M-173.9-413.3l-124.8-32.1h12.2l105.3,27C-178.7-416.7-176.2-415.1-173.9-413.3
						 M-323.2-445.4h12.2l143.3,36.8c1.9,1.5,3.7,3,5.5,4.6L-323.2-445.4z M-154-396.6c0.4,0.4,0.7,0.8,1.1,1.2l-194.8-49.9h12.2
						l178.2,45.7C-156.1-398.6-155-397.6-154-396.6 M-133.1-371.5l-275.5-70.7c2.4-0.5,4.9-0.9,7.3-1.2l265.5,68.1
						C-134.9-374.1-134.1-372.9-133.1-371.5 M-417.8-143.6l83.4,21.2h-1.4l-81.9-21C-417.6-143.4-417.7-143.5-417.8-143.6
						 M-427.4-278.4c0-0.8,0-1.6,0.1-2.4l47.2,12.1v3.2l-47.2-12.1L-427.4-278.4L-427.4-278.4z M-427.1-437.5l153.6,39.4h-5.3
						L-430-436.6C-429.1-436.9-428.1-437.2-427.1-437.5 M-268.2-239.9l30.9,8h-12.2l-18.8-4.8V-239.9z M-427.4-255.7l47.2,12.1v3.2
						l-47.2-12.1V-255.7z M-268.2-233.7l6.5,1.7h-6.5V-233.7z M-427.4-268.2l47.2,12.1v3.2l-47.2-12.1V-268.2z M-427.4-274.5
						l47.2,12.1v3.2l-47.2-12.1V-274.5z M-427.4-262l47.2,12.1v3.2l-47.2-12.1V-262z M-104.5-182.3l-147.7-37.9h12.3l135.5,34.7
						V-182.3z M-104.5-188.5l-123.2-31.6h6.8h5.5l111,28.5V-188.5z M-268.2-252.5l79.9,20.5h-12.2l-67.7-17.3V-252.5z M-104.5-213.6
						l-25.4-6.5h12.2l13.2,3.4V-213.6z M-268.2-246.2l55.5,14.2h-8.2h-4l-43.3-11.1V-246.2z M-104.5-194.8l-98.7-25.4h12.2
						l86.5,22.3V-194.8z M-104.5-219.9l-1-0.3h1V-219.9z M-104.5-207.3l-49.8-12.8h2.7h9.6l37.6,9.7V-207.3z M-104.5-201.1
						l-74.3-19.1h12.2l62.1,15.9V-201.1z M-496.6-279.7c0,0.5,0,0.9,0,1.4v1.7l-46.9-12.1c0.1-1,0.2-2.1,0.3-3.1L-496.6-279.7z
						 M-495-298.1c-0.2,1-0.3,2.1-0.5,3l-46-11.8c0.2-1,0.3-2,0.6-3L-495-298.1z M-493.9-304.1c-0.3,1-0.4,2-0.6,3l-45.8-11.8
						c0.3-1,0.4-2,0.6-3L-493.9-304.1z M-490.8-315.8c-0.3,0.9-0.6,2-0.9,2.9l-45.7-11.8c0.3-0.9,0.6-2,0.9-2.9L-490.8-315.8z
						 M-492.5-310c-0.3,0.9-0.6,2-0.8,2.9l-45.7-11.8c0.3-0.9,0.5-2,0.8-2.9L-492.5-310z M-268.2-258.7l104.3,26.8h-12.3l-92.1-23.6
						L-268.2-258.7z M-496.6-270.3l-47.2-12.1c0-1,0.1-2.1,0.1-3.1l47.1,12.1L-496.6-270.3L-496.6-270.3L-496.6-270.3z
						 M-357.2-281.6h-12.2l-55.3-14.2c0.3-0.9,0.7-1.9,1-2.8L-357.2-281.6z M-496.4-285.9c-0.1,1-0.1,2.1-0.2,3.1l-46.5-12
						c0.1-1,0.3-2.1,0.3-3.1L-496.4-285.9z M-495.9-292.1c-0.1,1-0.3,2.1-0.3,3.1l-46.2-11.9c0.2-1,0.3-2.1,0.4-3L-495.9-292.1z
						 M-422.5-301.5c0.5-0.9,0.9-1.9,1.5-2.7l88.3,22.6H-345L-422.5-301.5z M-308.3-281.6h-12.2l-98.7-25.4c0.6-0.9,1.2-1.8,1.9-2.7
						L-308.3-281.6z M-488.7-321.6c-0.4,0.9-0.7,1.9-1.1,2.8l-45.9-11.8c0.3-0.9,0.6-1.9,0.9-2.9L-488.7-321.6z M-380.1-271.8
						l-47-12.1c0.1-1,0.3-2.1,0.3-3.1l46.7,12V-271.8z M-379.5-281c-0.3,0.2-0.4,0.3-0.6,0.4c-0.1,0.4-0.2,1.1-0.2,2.2v0.4
						l-46.2-11.8c0.3-1,0.4-2,0.7-3L-379.5-281z M-486.3-327.2c-0.3,0.7-0.6,1.4-0.9,2.2c-0.1,0.2-0.2,0.4-0.3,0.6l-46.2-11.8
						c0.3-0.9,0.6-1.8,1-2.7L-486.3-327.2z M-395.9-126.2c-2.9-1.2-5.6-2.7-8.3-4.4l31.8,8.2h-3.2
						C-382.9-122.5-389.7-123.7-395.9-126.2 M-412.3-137.1c-0.8-0.8-1.5-1.6-2.3-2.4l66.6,17.1h-12.2l-50.2-12.9
						C-411-135.9-411.7-136.4-412.3-137.1 M-427.4-249.5l47.2,12.1v3.2l-47.2-12.1V-249.5z M-268.2-271.3L-115-232h-12.2l-141-36.3
						V-271.3z M-415.4-440.7l284.7,73c0.8,1.2,1.6,2.4,2.4,3.7l-99-25.4c-10-4.2-20.4-6.8-31.3-8l-162.9-41.8
						C-419.4-439.8-417.4-440.3-415.4-440.7 M-126.1-360.3c0.3,0.4,0.5,0.8,0.7,1.2l-84.5-21.5c-1.2-0.7-2.4-1.5-3.7-2.2
						L-126.1-360.3z M-268.2-261.9l116.5,29.9h12.2l-128.8-33.1V-261.9z"/>
				</g>
				<g transform="matrix(0.44807776786958026 0 0 -0.4480777678695803 -65.28331769863354 -43.36371175666795)">
					<path class="st11" d="M-189.3-222.8L-383.5-273v4.7l194.2,50.1V-222.8L-189.3-222.8z"/>
				</g>
				<g transform="matrix(0.44807776786958026 0 0 -0.4480777678695803 -19.660666683027898 -58.95036575867192)">
					<path class="st11" d="M-280.9-253.3l-54.2-14v15l54.2,14V-253.3z"/>
				</g>
				<g transform="matrix(0.44807776786958026 0 0 -0.4480777678695803 -42.02472096294326 -8.81709508503036)">
					<path class="st11" d="M-278.9-229.4l-36.9-9.5v10.2l36.9,9.5V-229.4z"/>
				</g>
				<g transform="matrix(0.44807776786958026 0 0 -0.4480777678695803 67.78287471891718 15.03587680973888)">
					<path class="st11" d="M-318.1-215.2l-62.9-16.2v11l62.9,16.2V-215.2z"/>
				</g>
				<g transform="matrix(0.44807776786958026 0 0 -0.4480777678695803 88.13389481890175 -5.676786856693184)">
					<path class="st11" d="M-344.6-235.3l-29.1-7.5v22.8l29.1,7.5V-235.3z"/>
				</g>
				<g transform="matrix(0.44807776786958026 0 0 -0.4480777678695803 110.72171913609117 31.507663634392486)">
					<path class="st11" d="M-303.1-193.9l-133.5-34.5v2.4l133.5,34.4V-193.9z"/>
				</g>
				<g transform="matrix(0.44807776786958026 0 0 -0.4480777678695803 74.93930398066942 21.70197457011136)">
					<path class="st11" d="M-335.6-212.5l-34.7-9v4.7l34.7,9V-212.5z"/>
				</g>
				<g transform="matrix(0.44807776786958026 0 0 -0.4480777678695803 -94.58007601080382 96.60655252377092)">
					<path class="st11" d="M-192.3-159.6L-352.6-201v2.4l160.3,41.4C-192.3-157.2-192.3-159.6-192.3-159.6z"/>
				</g>
				<g transform="matrix(0.44807776786958026 0 0 -0.4480777678695803 -67.07253703351347 85.47253691664037)">
					<path class="st11" d="M-270.2-195.8l-30.6-7.9v30.7l30.6,7.9V-195.8z"/>
				</g>
				<g transform="matrix(0.44807776786958026 0 0 -0.4480777678695803 -33.74997920814212 71.2690541762729)">
					<path class="st11" d="M-275.4-189.9l-51.9-13.4v11l51.9,13.4V-189.9z"/>
				</g>
				<g transform="matrix(0.44807776786958026 0 0 -0.4480777678695803 4.045156472772987 79.65895191741657)">
					<path class="st11" d="M-295.3-186l-48-12.4v10.3l48,12.4V-186z"/>
				</g>
				<g transform="matrix(0.44807776786958026 0 0 -0.4480777678695803 -74.22892148748895 83.28748568162439)">
					<path class="st11" d="M-260.5-184.2l-43.3-11.2v8.7l43.3,11.2V-184.2L-260.5-184.2z"/>
				</g>
				<g transform="matrix(0.44807776786958026 0 0 -0.4480777678695803 -32.408210332256715 99.37531466699062)">
					<path class="st11" d="M-287.8-176.9l-28.3-7.3v5.5l28.3,7.3V-176.9z"/>
				</g>
				<g transform="matrix(0.44807776786958026 0 0 -0.4480777678695803 96.63227218764649 -52.902391279075516)">
					<path class="st11" d="M-312.4-239.3l-101.4-26.2v4.7l101.4,26.2V-239.3z"/>
				</g>
				<g transform="matrix(0.44807776786958026 0 0 -0.4480777678695803 -55.44317145400322 48.86418001170466)">
					<path class="st11" d="M-270.2-199.9l-41.6-10.8v7.1l41.6,10.8V-199.9z"/>
				</g>
				<g transform="matrix(0.44807776786958026 0 0 -0.4480777678695803 -25.028145456560765 38.32391225477812)">
					<path class="st11" d="M-267.3-198.1l-76.2-19.7v2.4l76.2,19.7V-198.1z"/>
				</g>
			</g>
		</g>
		<g id="text-logo-path" transform="matrix(1.9692780337941629 0 0 1.9692780337941629 640.118752480928 739.6151249552556)">
			<path class="st7" d="M-268.7,66.9L-268.7,66.9v-7.4c0-1.2,0.3-2.3,0.6-3.3c0.5-1,1-1.9,1.8-2.7c0.8-0.8,1.7-1.3,2.7-1.8
				c1-0.5,2.1-0.6,3.4-0.6l0,0h7.3c1.2,0,2.2,0.3,3.3,0.7c1,0.5,1.9,1,2.7,1.8c0.8,0.8,1.4,1.7,1.8,2.7c0.5,1,0.6,2.1,0.6,3.2l0,0
				h-4.9c0-0.5-0.1-0.9-0.3-1.3c-0.2-0.4-0.5-0.8-0.8-1.1s-0.7-0.6-1.1-0.8c-0.4-0.2-0.9-0.3-1.3-0.3l0,0h-7.3c-0.6,0-1,0.1-1.4,0.3
				c-0.5,0.2-0.8,0.5-1.2,0.8c-0.3,0.3-0.6,0.7-0.8,1.2c-0.2,0.5-0.3,0.9-0.3,1.5l0,0V67c0,1,0.3,1.9,1,2.6c0.7,0.6,1.6,1,2.6,1l0,0
				h7.3c0.5,0,0.9-0.1,1.3-0.3c0.5-0.2,0.8-0.4,1.1-0.8c0.3-0.3,0.6-0.7,0.8-1.1c0.2-0.4,0.3-0.9,0.3-1.4l0,0h2.4h2.5
				c0,1.2-0.3,2.2-0.6,3.2c-0.5,1-1,1.9-1.8,2.7c-0.8,0.8-1.7,1.3-2.7,1.8c-1,0.5-2.1,0.7-3.3,0.7l0,0h-7.3c-1.2,0-2.3-0.3-3.4-0.6
				c-1-0.5-2-1-2.7-1.8c-0.8-0.8-1.4-1.7-1.8-2.7C-268.5,69.4-268.7,68-268.7,66.9z M-240.7,66.9L-240.7,66.9v-7.3
				c0-1.2,0.3-2.2,0.6-3.2c0.5-1,1-1.9,1.8-2.7c0.8-0.8,1.7-1.3,2.7-1.8c1-0.5,2.1-0.6,3.3-0.6l0,0h7.3c1.2,0,2.2,0.3,3.2,0.6
				c1,0.5,1.9,1,2.7,1.8c0.8,0.8,1.3,1.7,1.8,2.7c0.5,1,0.6,2.1,0.6,3.3l0,0V67c0,1.2-0.3,2.2-0.6,3.3c-0.5,1-1,1.9-1.8,2.7
				c-0.8,0.8-1.7,1.3-2.7,1.8c-1,0.5-2.1,0.6-3.3,0.6l0,0h-7.3c-1.2,0-2.2-0.3-3.2-0.6c-1-0.5-1.9-1-2.7-1.8
				c-0.8-0.8-1.3-1.7-1.8-2.7C-240.4,69.2-240.7,68-240.7,66.9z M-235.9,59.6v7.3c0,0.5,0.1,0.9,0.3,1.4c0.2,0.4,0.5,0.8,0.8,1.1
				c0.3,0.3,0.7,0.6,1.2,0.8c0.5,0.2,0.9,0.3,1.4,0.3l0,0h7.3c1,0,1.9-0.3,2.5-1c0.7-0.7,1-1.5,1-2.5l0,0v-7.3
				c0-0.5-0.1-0.9-0.3-1.4c-0.2-0.5-0.4-0.9-0.8-1.2c-0.3-0.3-0.7-0.6-1.1-0.8c-0.4-0.2-0.9-0.3-1.4-0.3l0,0h-7.3
				c-0.6,0-1,0.1-1.4,0.3c-0.4,0.2-0.8,0.5-1.1,0.8l0,0c-0.3,0.3-0.6,0.7-0.8,1.2C-235.7,58.6-235.9,59.2-235.9,59.6L-235.9,59.6z
				 M-207.4,75.3h-4.9V51.2h3.2h1.7l14.5,8.3v-8.3h4.8v24.1h-4.8V65.1l-14.5-8.3V75.3z M-178.5,75.3h-4.8V51.2h3.2h1.7l14.5,8.3
				v-8.3h4.9v24.1h-4.9V65.1l-14.6-8.3L-178.5,75.3L-178.5,75.3z M-130.3,75.3h-24.1V56v-4.7h24.1V56h-19.4v4.7h10.1v4.8h-10.1v4.9
				h19.3v4.9H-130.3z M-120.1,75.3h-6l9.1-12.1l-9.1-12.1h6l6,7.9l6-7.9h6.1l-9,12.1l9.1,12.2h-6.1l-6.2-8.2L-120.1,75.3z
				 M-92.7,75.3h-4.9V51.2h4.9v9.6h14.4v-9.5h4.8v24.1h-4.8v-9.8h-14.4V75.3z M-44.7,75.3h-24.1V56v-4.7h24.1V56h-19.3v4.7h10.1v4.8
				h-10.1v4.9h19.3V75.3z M-35,75.3h-4.9V51.2h16.8c1,0.2,2,0.5,2.8,0.9c0.9,0.5,1.7,1.1,2.3,1.8c0.6,0.7,1.2,1.6,1.6,2.4
				c0.4,0.9,0.6,1.8,0.6,2.8l0,0v0.3v0.3c0,0.6-0.1,1.3-0.3,2c-0.2,0.6-0.5,1.3-0.8,1.9c-0.3,0.6-0.7,1.2-1.2,1.7
				c-0.5,0.5-0.9,0.9-1.5,1.2l0,0l3.8,8.7h-5.3l-3.2-7.3h-10.8L-35,75.3L-35,75.3L-35,75.3z M-35,55.9v7.3h10.8
				c0.5,0,0.9-0.1,1.4-0.3c0.5-0.2,0.9-0.5,1.2-0.8c0.3-0.3,0.6-0.7,0.8-1.1c0.2-0.4,0.3-0.9,0.3-1.4l0,0c0-0.5-0.1-0.9-0.3-1.3
				c-0.3-0.5-0.5-0.9-0.8-1.2c-0.3-0.3-0.7-0.6-1.2-0.8c-0.4-0.3-0.9-0.3-1.3-0.3l0,0h-10.9L-35,55.9L-35,55.9z"/>
		</g>
	</g>
</g>
</svg>
